<?xml version="1.0" ?>

<!DOCTYPE svg  PUBLIC '-//W3C//DTD SVG 1.1//EN'  'http://www.w3.org/Graphics/SVG/1.1/DTD/svg11.dtd'>

<!-- Uploaded to: SVG Repo, www.svgrepo.com, Generator: SVG Repo Mixer Tools -->
<svg fill="#414952" width="800px" height="800px" viewBox="0 0 512 512" enable-background="new 0 0 512 512" id="Gambler" version="1.1" xml:space="preserve" xmlns="http://www.w3.org/2000/svg" xmlns:xlink="http://www.w3.org/1999/xlink">

<g>

<path clip-rule="evenodd" d="M472.063,364.843c-1.394-14.027-9.735-26.418-22.208-32.987l-67.201-35.393   h-0.076l0.002-0.015l-13.879-15.411l1.753-2.063v-17.59c21.562-13.359,35.008-36.745,35.623-62.143   c10.073-2.586,17.539-11.744,17.539-22.612v-8.04c0-8.024-4.076-15.107-10.26-19.311c24.309-9.199,31.91-37.917,20.833-69.521   c0,0-0.36,0.564-1.092,1.464c-9.888,12.132-28.536,12.108-38.353,0.132c-0.035-0.036-0.06-0.084-0.096-0.12   c-0.18-0.216-0.348-0.432-0.516-0.647c-13.752-18.156-37.176-30.108-63.769-30.108c-41.244,0-74.868,28.752-76.584,64.788   c-0.399,1.603,0.148,8.244,1.074,16.521c-0.377,2.116-0.585,4.29-0.585,6.513v7.683c-10.063,2.594-17.519,11.746-17.519,22.607   v8.04c0,10.868,7.467,20.026,17.54,22.612c0.621,25.989,14.528,49.651,36.838,62.881v16.852l1.753,2.063l-13.879,15.411   l0.002,0.019l-67.195,35.389c-3.1,1.633-5.93,3.638-8.474,5.927H76.439c-7.566,0-13.723,6.155-13.723,13.722v21.803   c0,0.585,0.049,1.156,0.12,1.723H44.644c-7.566,0-13.723,6.155-13.723,13.722v21.803c0,7.565,6.156,13.722,13.723,13.722h5.476   c-0.071,0.565-0.12,1.138-0.12,1.722V447.8c0,7.566,6.155,13.722,13.722,13.722H210.89c4.686,0,8.827-2.363,11.304-5.959h108.273   h0.732h149.88L472.063,364.843z M266.271,197.424v-9.451h-6.176c-6.255,0-11.343-5.089-11.343-11.343v-8.04   c0-6.255,5.088-11.343,11.343-11.343h6.176V149.5c4.232-9.515,10.621-15.792,20.427-28.581c0,0,19.729-7.188,36.3,3.804   c2.412,1.596,4.801,3.12,7.141,4.572c25.693,15.87,47.106,22.714,63.961,23.032v4.92h6.175c6.255,0,11.343,5.088,11.343,11.343   v8.04c0,6.254-5.088,11.343-11.343,11.343h-6.175v9.451c0,22.937-12.476,44.12-32.56,55.284l-3.085,1.715v20.141l-23.761,27.956   l-3.353,3.943l0,0l-0.549,0.646l-0.549-0.646l0,0l-3.353-3.943l-23.761-27.956V255l-3.19-1.691   C279.172,242.304,266.271,220.89,266.271,197.424z M280.224,307.127l6.742,59.041l28.392-32.263l4.745,14.592l-6.859,97.065   h-88.632v-19.565c0-7.565-6.155-13.722-13.722-13.722h-5.476c0.071-0.565,0.12-1.138,0.12-1.722v-21.803   c0-0.585-0.049-1.157-0.12-1.722h18.194c7.566,0,13.722-6.156,13.722-13.723v-21.803c0-7.566-6.155-13.722-13.722-13.722h-1.59   L280.224,307.127z M74.717,373.307v-21.803c0-0.949,0.772-1.722,1.723-1.722h147.169c0.949,0,1.722,0.772,1.722,1.722v21.803   c0,0.949-0.772,1.723-1.722,1.723h-31.796H76.439C75.489,375.029,74.717,374.256,74.717,373.307z M42.921,410.554v-21.803   c0-0.95,0.772-1.722,1.723-1.722h31.796h115.373c0.949,0,1.722,0.771,1.722,1.722v21.803c0,0.949-0.772,1.722-1.722,1.722H63.721   H44.644C43.693,412.275,42.921,411.503,42.921,410.554z M61.999,447.8v-21.803c0-0.949,0.772-1.722,1.722-1.722h128.092h19.077   c0.949,0,1.722,0.772,1.722,1.722V447.8c0,0.95-0.772,1.722-1.722,1.722H63.721C62.771,449.521,61.999,448.75,61.999,447.8z    M348.38,445.563l-6.87-97.066h-0.001l4.729-14.563l-11.443-13.002l0.001-0.001l9.358,10.631l30.465,34.607l6.747-59.081   l63.83,33.616c9.528,5.02,15.853,14.412,16.918,25.129l7.923,79.73H348.38z" fill-rule="evenodd"/>

<path clip-rule="evenodd" d="M39.424,234.456c1.249,3.551,2.713,6.998,4.376,10.33   c0.012,0.021,0.022,0.044,0.033,0.066c1.252,2.502,2.616,4.938,4.087,7.3c0.019,0.03,0.038,0.061,0.057,0.092   c1.471,2.356,3.046,4.642,4.722,6.847c0.022,0.03,0.045,0.06,0.067,0.089c0.528,0.693,1.067,1.38,1.615,2.058   c0.04,0.051,0.081,0.101,0.121,0.151c1.157,1.426,2.356,2.817,3.597,4.17c0.01,0.01,0.019,0.02,0.028,0.03   c0.581,0.632,1.172,1.255,1.77,1.87c0.045,0.047,0.087,0.094,0.132,0.14l-0.002,0.003c0.13,0.133,0.264,0.263,0.395,0.395   c0.254,0.257,0.508,0.512,0.764,0.765c0.139,0.138,0.274,0.278,0.414,0.414l0.005-0.005c11.772,11.488,26.663,19.792,43.286,23.521   c0.119,0.026,0.238,0.051,0.357,0.077c0.704,0.155,1.41,0.302,2.12,0.44c0.17,0.033,0.34,0.065,0.51,0.098   c0.678,0.128,1.358,0.248,2.042,0.361c0.171,0.028,0.342,0.058,0.513,0.085c0.743,0.118,1.489,0.228,2.238,0.327   c0.099,0.014,0.196,0.028,0.294,0.041c1.708,0.223,3.43,0.398,5.166,0.523c0.215,0.016,0.431,0.027,0.646,0.041   c0.63,0.041,1.262,0.078,1.895,0.106c0.288,0.013,0.576,0.022,0.864,0.032c0.571,0.021,1.144,0.035,1.718,0.045   c0.172,0.003,0.343,0.012,0.515,0.014c0.129,0.002,0.256-0.003,0.385-0.002c0.207,0.002,0.413,0.008,0.621,0.008   c0.498,0,0.994-0.011,1.491-0.019c0.222-0.004,0.445-0.004,0.667-0.009c0.893-0.021,1.783-0.055,2.669-0.102   c0.249-0.013,0.495-0.031,0.742-0.047c0.654-0.039,1.308-0.085,1.958-0.139c0.319-0.025,0.637-0.055,0.954-0.084   c0.612-0.058,1.222-0.121,1.83-0.189c0.287-0.033,0.575-0.063,0.862-0.1c0.875-0.107,1.747-0.225,2.613-0.356   c0.041-0.007,0.081-0.015,0.122-0.021c0.839-0.129,1.674-0.273,2.505-0.426c0.255-0.047,0.51-0.097,0.765-0.146   c0.637-0.122,1.272-0.251,1.904-0.387c0.26-0.056,0.52-0.111,0.778-0.17c0.719-0.16,1.434-0.33,2.146-0.508   c0.112-0.028,0.226-0.052,0.337-0.08l-0.001-0.002c15.633-3.972,29.638-12.016,40.826-22.935l0.004,0.004   c0.112-0.109,0.221-0.223,0.333-0.333c0.298-0.293,0.593-0.588,0.887-0.886c0.117-0.119,0.237-0.235,0.354-0.354l-0.005-0.004   c15.911-16.304,25.719-38.59,25.719-63.17c0-10.479-1.788-20.538-5.064-29.898c-0.014-0.037-0.026-0.073-0.039-0.11   c-2.2-6.258-5.068-12.2-8.52-17.742c-0.008-0.012-0.015-0.023-0.022-0.035c-1.479-2.373-3.064-4.673-4.751-6.892   c-0.012-0.016-0.024-0.031-0.036-0.047c-0.539-0.709-1.088-1.408-1.647-2.1c-0.034-0.042-0.067-0.084-0.101-0.125   c-1.162-1.433-2.365-2.829-3.61-4.187c-0.003-0.003-0.006-0.006-0.009-0.009c-0.587-0.64-1.185-1.271-1.79-1.894   c-0.043-0.043-0.083-0.089-0.126-0.133l0.002-0.002c-0.11-0.113-0.225-0.223-0.336-0.336c-0.299-0.303-0.599-0.603-0.901-0.9   c-0.113-0.112-0.223-0.227-0.337-0.338l-0.004,0.004c-11.77-11.484-26.656-19.787-43.275-23.518   c-0.129-0.028-0.258-0.056-0.387-0.084c-0.692-0.152-1.387-0.296-2.084-0.433c-0.182-0.035-0.362-0.069-0.543-0.104   c-0.665-0.126-1.332-0.243-2.001-0.354c-0.184-0.03-0.367-0.062-0.551-0.091c-0.726-0.115-1.453-0.222-2.185-0.32   c-0.115-0.016-0.229-0.033-0.345-0.048c-1.7-0.222-3.416-0.396-5.145-0.521c-0.23-0.017-0.462-0.028-0.693-0.044   c-0.612-0.04-1.225-0.075-1.839-0.103c-0.305-0.014-0.61-0.024-0.916-0.035c-0.549-0.02-1.1-0.033-1.65-0.043   c-0.184-0.003-0.366-0.013-0.55-0.015c-0.138-0.001-0.274,0.003-0.411,0.003c-0.199-0.002-0.396-0.008-0.595-0.008   c-0.479,0-0.955,0.011-1.432,0.018c-0.247,0.004-0.496,0.004-0.743,0.01c-0.883,0.021-1.764,0.055-2.641,0.101   c-0.263,0.014-0.524,0.033-0.787,0.05c-0.643,0.039-1.283,0.083-1.923,0.136c-0.318,0.026-0.636,0.056-0.953,0.085   c-0.619,0.058-1.236,0.122-1.853,0.192c-0.276,0.031-0.554,0.061-0.83,0.095c-1.779,0.219-3.543,0.49-5.289,0.811   c-0.219,0.041-0.437,0.084-0.656,0.126c-0.686,0.132-1.368,0.271-2.049,0.417c-0.216,0.047-0.433,0.093-0.648,0.141   c-0.796,0.178-1.588,0.365-2.375,0.563c-0.055,0.014-0.109,0.025-0.164,0.039v0.001c-15.633,3.972-29.638,12.016-40.826,22.935   l-0.004-0.004c-0.112,0.109-0.221,0.223-0.333,0.333c-0.289,0.285-0.577,0.572-0.863,0.862c-0.125,0.127-0.253,0.25-0.378,0.377   l0.005,0.005c-6.508,6.669-11.993,14.339-16.205,22.759c-0.001,0.001-0.001,0.003-0.002,0.004   c-1.679,3.356-3.154,6.831-4.411,10.409c-0.009,0.025-0.018,0.051-0.027,0.076c-3.281,9.366-5.072,19.434-5.072,29.921   c0,10.473,1.785,20.526,5.059,29.882C39.39,234.358,39.407,234.407,39.424,234.456z M48.706,185.196l10.228,2.74   c3.12-12.499,9.688-23.614,18.642-32.279l-7.45-7.45c9.205-8.95,20.589-15.658,33.274-19.256l2.735,10.207   c6.158-1.756,12.664-2.678,19.394-2.603c6.202,0.068,12.193,0.983,17.884,2.604l2.735-10.209   c12.686,3.598,24.069,10.305,33.274,19.255l-7.458,7.458c8.965,8.679,15.547,19.791,18.664,32.27l10.214-2.737   c1.558,6.157,2.393,12.598,2.393,19.231s-0.835,13.075-2.393,19.232l-10.229-2.741c-3.12,12.499-9.688,23.615-18.642,32.28   l7.45,7.451c-9.205,8.95-20.589,15.657-33.274,19.255l-2.735-10.207c-6.157,1.756-12.663,2.678-19.393,2.603   c-6.202-0.068-12.194-0.983-17.885-2.605l-2.735,10.21c-12.686-3.599-24.069-10.306-33.275-19.256l7.459-7.458   c-8.965-8.679-15.547-19.791-18.663-32.268l-10.214,2.736c-1.557-6.156-2.393-12.598-2.393-19.232   C46.313,197.794,47.148,191.353,48.706,185.196z" fill-rule="evenodd"/>

<path clip-rule="evenodd" d="M109.287,226.374c5.936,0,11.113-3.149,13.825-7.791   c0.156,5.293-2.283,12.977-6.529,22.366h16.859c-4.155-8.714-7.354-16.785-7.049-22.432c2.696,4.683,7.897,7.856,13.85,7.856   c8.706,0,15.813-6.793,15.813-15.128c0-5.128-3.256-9.448-6.537-12.853c-11.394-11.831-19.324-21.154-24.725-30.487   c-6.513,11.822-15.936,20.85-25.458,30.487c-3.816,3.866-5.845,7.37-5.845,12.853C93.491,219.581,100.59,226.374,109.287,226.374z" fill-rule="evenodd"/>

</g>

</svg>
