<?xml version="1.0" encoding="iso-8859-1"?>
<!-- Uploaded to: SVG Repo, www.svgrepo.com, Generator: SVG Repo Mixer Tools -->
<svg fill="#cccccc" height="800px" width="800px" version="1.1" id="Layer_1" xmlns="http://www.w3.org/2000/svg" xmlns:xlink="http://www.w3.org/1999/xlink"
	 viewBox="0 0 496 496" xml:space="preserve">
<g>
	<g>
		<g>
			<path d="M424,40h-56c-39.696,0-72,32.304-72,72v28.296c-4.712-2.736-10.176-4.296-16-4.296c-17.648,0-32,14.352-32,32
				c0-17.648-14.352-32-32-32c-5.824,0-11.288,1.56-16,4.296V112c0-39.696-32.304-72-72-72H72C32.304,40,0,72.304,0,112v150.152
				c0,7.624,1.52,15.048,4.528,22.056L24,329.64V456h168V331.008l38.184-43.648C241.672,274.24,248,257.4,248,239.952
				c0,17.448,6.328,34.288,17.816,47.408L304,331.008V456h168V329.64l19.472-45.432c3.008-7.016,4.528-14.432,4.528-22.056V112
				C496,72.304,463.696,40,424,40z M232,239.952c0,13.568-4.92,26.664-13.856,36.872L180.368,320H160v16h16v104H40V336h104v-16
				H37.272l-18.04-42.104c-2.144-5-3.232-10.304-3.232-15.744V112c0-30.88,25.12-56,56-56h56c30.88,0,56,25.12,56,56v28
				l-22.408,16.8C155.584,161.312,152,168.488,152,176v8c0,13.232,10.768,24,24,24s24-10.768,24-24v-16c0-8.824,7.176-16,16-16
				c8.824,0,16,7.176,16,16V239.952z M185.28,159.04c-0.832,2.848-1.28,5.848-1.28,8.96v16c0,4.408-3.592,8-8,8s-8-3.592-8-8v-8
				c0-2.504,1.192-4.896,3.2-6.4L185.28,159.04z M310.72,159.04l14.08,10.56c2.008,1.504,3.2,3.896,3.2,6.4v8c0,4.408-3.592,8-8,8
				c-4.408,0-8-3.592-8-8v-16C312,164.888,311.552,161.888,310.72,159.04z M480,262.152c0,5.448-1.088,10.752-3.232,15.76
				L458.728,320H440v16h16v104H320V336h104v-16H315.632l-37.776-43.168C268.92,266.616,264,253.52,264,239.952V168
				c0-8.824,7.176-16,16-16c8.824,0,16,7.176,16,16v16c0,13.232,10.768,24,24,24s24-10.768,24-24v-8c0-7.512-3.584-14.688-9.6-19.2
				L312,140v-28c0-30.88,25.12-56,56-56h56c30.88,0,56,25.12,56,56V262.152z"/>
			<path d="M336,424h104v-72H336V424z M352,368h72v40h-72V368z"/>
			<path d="M56,424h104v-72H56V424z M72,368h72v40H72V368z"/>
		</g>
	</g>
</g>
</svg>
