<svg id="Layer_2" xmlns="http://www.w3.org/2000/svg" viewBox="0 0 32 32"><defs><style>.cls-1{fill:#8c9099;}.cls-2{fill:#404952;}</style></defs><g id="Layer_1-2"><g><path class="cls-2" d="m31.13,10.8l-.44.45c-.85.84-2.01,1.33-3.18,1.37.32,1.07.49,2.21.49,3.38,0,6.61-5.38,12-12,12s-12-5.39-12-12,5.38-12,12-12c1.2,0,2.36.18,3.46.51.06-1.2.56-2.35,1.4-3.16l.45-.45c-1.66-.58-3.45-.9-5.31-.9C7.16,0,0,7.16,0,16s7.16,16,16,16,16-7.17,16-16c0-1.82-.3-3.57-.87-5.2Z"></path><path class="cls-2" d="m23.04,13.55c-.6.52-1.21,1.04-1.81,1.56l-1.84,1.59c-.33,1.58-1.72,2.76-3.39,2.76-1.91,0-3.46-1.55-3.46-3.46,0-1.59,1.08-2.94,2.54-3.34.82-.91,1.65-1.82,2.47-2.73.3-.33.59-.66.88-.98-.76-.28-1.58-.42-2.43-.42-4.12,0-7.46,3.34-7.46,7.47s3.34,7.46,7.46,7.46,7.46-3.34,7.46-7.46c0-.86-.15-1.68-.42-2.45Z"></path><path class="cls-1" d="m31.8,7.26l-.68.73-.82.82-1.01,1.01c-.52.51-1.22.81-1.95.81h-.61s-3.29-.07-3.29-.07c-.44.38-.89.77-1.33,1.15-1.02.88-2.05,1.77-3.07,2.65-.86.74-1.72,1.49-2.58,2.23-.14.12-.32.21-.5.25-.24.06-.48.11-.71.17-.02,0-.04.01-.06.01-.18,0-.34-.17-.3-.36.05-.23.1-.47.14-.71.04-.21.14-.4.28-.56.75-.83,1.5-1.66,2.25-2.49.91-1,1.81-2.01,2.72-3.01.43-.48.86-.95,1.29-1.43l-.1-3.14-.02-.5c-.02-.77.27-1.52.82-2.06l1.01-1.01.81-.81.74-.69c.13-.12.28-.18.43-.18.32,0,.63.25.64.62l.09,2.82.06,1.9c.01.38.32.69.7.69l1.85.04,2.76.06c.55.01.82.66.44,1.06Z"></path></g></g></svg>
