<svg id="Layer_2" data-name="Layer 2" xmlns="http://www.w3.org/2000/svg" width="24.344" height="28.141" viewBox="0 0 24.344 28.141"><g id="Layer_2-2" data-name="Layer 2"><g><path d="M16.128,26.336h-.1q0,.1,.1,0Z" fill="#8c9099"></path><path d="M7.828,15.936c2.8,6.4,7.5,10.6,10.5,9.5h0l-5.7,2.5h-.1c-3,1.2-7.7-3-10.5-9.5C-.772,12.036-.672,5.736,2.328,4.336c0,0,.1,0,.1-.1L8.128,1.736h0c-2.9,1.5-3.1,7.8-.3,14.2Z" fill="#404952"></path><path d="M22.328,9.636c2.8,6.5,2.7,12.9-.4,14.2h-.1c-3,1.2-7.7-3-10.5-9.5-2.8-6.3-2.6-12.6,.3-14,0,0,.1,0,.1-.1,3-1.3,7.8,2.9,10.6,9.4Z" fill="#8c9099"></path><path d="M21.328,22.436c-.1,0-.1,.1,0,0,1.6-1.6,1.4-6.5-.6-11.5C18.528,5.436,14.928,1.736,12.728,2.836h-.1c-.1,.1-.2,.1-.3,.2,.2-.4,.5-.6,.9-.8,0,0,.1,0,.1-.1,2.4-1.1,6.1,2.5,8.3,8.1,2.2,5.7,2.1,11.1-.3,12.2Z" fill="#404952"></path></g></g></svg>
