<svg width="20" height="20" viewBox="0 0 20 20" fill="none" xmlns="http://www.w3.org/2000/svg"><g clip-path="url(#clip0_14577_298)"><path d="M17.7199 0C17.2952 0.00474135 16.8711 0.0347946 16.4499 0.09L16.1499 0.15C15.8126 0.203523 15.4786 0.276985 15.1499 0.37L14.8999 0.43C14.0489 0.681123 13.2248 1.0161 12.4399 1.43C12.673 1.41535 12.9068 1.41535 13.1399 1.43C13.927 1.44195 14.7028 1.61822 15.4177 1.94749C16.1326 2.27676 16.7709 2.75177 17.2915 3.34208C17.8121 3.93239 18.2037 4.62497 18.4411 5.37543C18.6785 6.12588 18.7564 6.91766 18.6699 7.7C18.857 7.31904 19.0239 6.9285 19.1699 6.53C19.1699 6.46 19.2199 6.38 19.2499 6.3C19.3699 5.96 19.4799 5.61 19.5699 5.25L19.6599 4.91C19.7399 4.57 19.7999 4.22 19.8499 3.91C19.8499 3.79 19.8499 3.67 19.8999 3.54C19.9686 3.02958 20.0021 2.51502 19.9999 2V0H17.7199Z" fill="#8C9099"></path><path d="M17.7199 0C15.8689 0.0429428 14.0564 0.537262 12.4399 1.44C13.2813 1.34434 14.1334 1.43969 14.9328 1.71895C15.7321 1.99821 16.4582 2.45419 17.057 3.05295C17.6557 3.6517 18.1117 4.3778 18.391 5.17719C18.6703 5.97657 18.7656 6.82866 18.6699 7.67C19.5397 5.90609 19.9946 3.96667 19.9999 2V0H17.7199Z" fill="#414952"></path><path d="M13.5709 8.57679C14.3988 7.74888 14.4779 6.48571 13.7477 5.75543C13.0174 5.02515 11.7542 5.1043 10.9263 5.93221C10.0984 6.76012 10.0193 8.02328 10.7495 8.75356C11.4798 9.48384 12.743 9.4047 13.5709 8.57679Z" fill="#8C9099"></path><path d="M5.65 6.16003H4.65C3.87108 6.16569 3.11075 6.39865 2.46236 6.83033C1.81396 7.262 1.30572 7.87359 1 8.59003L0 10.84C0.122453 10.994 0.275365 11.1211 0.449171 11.2133C0.622977 11.3055 0.813937 11.3608 1.01011 11.3758C1.20628 11.3908 1.40343 11.3652 1.58925 11.3006C1.77506 11.2359 1.94553 11.1336 2.09 11L3 10.16C3.2239 9.89364 3.51344 9.69027 3.84 9.57003C4.26845 8.34883 4.87865 7.19923 5.65 6.16003Z" fill="#414952"></path><path d="M10.5099 16.16C10.4165 16.4798 10.2407 16.7695 9.99994 17L9.16994 17.83C9.02482 17.9757 8.91234 18.1506 8.84 18.3431C8.76765 18.5356 8.73708 18.7413 8.75032 18.9466C8.76356 19.1518 8.82031 19.3519 8.91679 19.5335C9.01328 19.7151 9.14729 19.8741 9.30994 20L11.5699 19C12.2848 18.6949 12.8954 18.1882 13.3269 17.5418C13.7585 16.8954 13.9923 16.1372 13.9999 15.36V14.47C12.9258 15.2014 11.7499 15.7708 10.5099 16.16Z" fill="#414952"></path><path d="M6 14.0001C4.9 12.9001 3.55 12.4501 3 13.0001L0.590001 15.4101C0.402832 15.5962 0.254338 15.8174 0.153077 16.0611C0.0518166 16.3049 -0.000208492 16.5662 6.27931e-07 16.8301V17.2901L2.65 14.6501C2.74283 14.5573 2.86873 14.5051 3 14.5051C3.13128 14.5051 3.25717 14.5573 3.35 14.6501C3.44283 14.7429 3.49498 14.8688 3.49498 15.0001C3.49498 15.1314 3.44283 15.2573 3.35 15.3501L0.590001 18.1201C0.402832 18.3062 0.254338 18.5274 0.153077 18.7711C0.0518166 19.0149 -0.000208492 19.2762 6.27931e-07 19.5401V20.0001H0.460001C0.723912 20.0003 0.985256 19.9483 1.22897 19.847C1.47268 19.7458 1.69394 19.5973 1.88 19.4101L4.65 16.6501C4.74283 16.5573 4.86872 16.5051 5 16.5051C5.13128 16.5051 5.25717 16.5573 5.35 16.6501C5.44283 16.7429 5.49498 16.8688 5.49498 17.0001C5.49498 17.1314 5.44283 17.2573 5.35 17.3501L2.71 20.0001H3.17C3.43391 20.0003 3.69526 19.9483 3.93897 19.847C4.18268 19.7458 4.40394 19.5973 4.59 19.4101L7 17.0001C7.55 16.4501 7.1 15.1001 6 14.0001Z" fill="#8C9099"></path><path d="M16.45 3.87005C16.0326 3.40617 15.522 3.0355 14.9517 2.78221C14.3814 2.52892 13.764 2.39871 13.14 2.40005C12.9468 2.39009 12.7532 2.39009 12.56 2.40005L10.43 2.67005C7.89165 4.47426 5.935 6.98003 4.8 9.88005C4.69704 10.2119 4.51518 10.5139 4.27 10.7601L3.5 11.5001L3.78 11.7801C4.90377 11.9234 5.94114 12.458 6.71 13.2901C7.55637 14.0533 8.09656 15.0982 8.23 16.2301L8.5 16.5001L9.18 15.7901C9.4594 15.5202 9.80392 15.3273 10.18 15.2301C13.1614 14.2255 15.7345 12.2772 17.51 9.68005L17.7 7.58005C17.7647 6.9085 17.6867 6.23086 17.4713 5.59152C17.2559 4.95217 16.9079 4.36554 16.45 3.87005ZM14 9.00005C13.7704 9.26036 13.4917 9.47283 13.1798 9.62529C12.868 9.77776 12.5292 9.86724 12.1827 9.8886C11.8362 9.90997 11.489 9.8628 11.1608 9.74979C10.8326 9.63679 10.5299 9.46017 10.27 9.23005C10.0399 8.97018 9.86326 8.66749 9.75026 8.33928C9.63726 8.01108 9.59009 7.66381 9.61145 7.31735C9.63281 6.9709 9.72229 6.63206 9.87476 6.32022C10.0272 6.00839 10.2397 5.72968 10.5 5.50005C10.9656 4.97462 11.62 4.65453 12.3206 4.60957C13.0211 4.56461 13.7111 4.79843 14.24 5.26005C14.7016 5.78896 14.9354 6.47891 14.8905 7.17949C14.8455 7.88008 14.5254 8.53448 14 9.00005Z" fill="#8C9099"></path><path d="M10.93 5.93001C10.5326 6.28037 10.2905 6.77408 10.2568 7.30278C10.223 7.83148 10.4004 8.35197 10.75 8.75001C11.148 9.09961 11.6685 9.27701 12.1972 9.24326C12.7259 9.20952 13.2196 8.96738 13.57 8.57001C13.9674 8.21965 14.2095 7.72593 14.2433 7.19724C14.277 6.66854 14.0996 6.14805 13.75 5.75001C13.352 5.4004 12.8315 5.223 12.3028 5.25675C11.7741 5.2905 11.2804 5.53263 10.93 5.93001Z" fill="#8C9099"></path><path d="M13.5709 8.57679C14.3988 7.74888 14.4779 6.48571 13.7477 5.75543C13.0174 5.02515 11.7542 5.1043 10.9263 5.93221C10.0984 6.76012 10.0193 8.02328 10.7495 8.75356C11.4798 9.48384 12.743 9.4047 13.5709 8.57679Z" fill="#414952"></path><path d="M6.99997 13C5.61997 11.62 4.04997 11 3.49997 11.5C3.42569 11.5836 3.37102 11.6826 3.33997 11.79C3.44997 11.79 3.54997 11.79 3.65997 11.79C4.83213 11.9009 5.92027 12.4467 6.70997 13.32C7.18964 13.7321 7.57205 14.2453 7.82968 14.8229C8.08732 15.4004 8.21377 16.0278 8.19997 16.66C8.31292 16.6357 8.41683 16.5803 8.49997 16.5C9.04997 16 8.37997 14.38 6.99997 13Z" fill="#414952"></path></g><defs><clipPath id="clip0_14577_298"><rect width="20" height="20" fill="white"></rect></clipPath></defs></svg>
