<svg width="21" height="20" viewBox="0 0 21 20" fill="none" xmlns="http://www.w3.org/2000/svg"><path d="M13.14 5C12.69 5.45 12.14 5.64 11.9 5.41C11.66 5.18 11.9 4.63 12.32 4.17C12.74 3.71 13.32 3.53 13.56 3.76C13.8 3.99 13.6 4.53 13.14 5Z" fill="#414952"></path><path d="M18 0H2C1.46957 0 0.96086 0.210714 0.585787 0.585786C0.210714 0.960859 0 1.46957 0 2V20C6.28 20 10.6 15.76 12.25 10.67C12.8089 10.8838 13.4016 10.9956 14 11C14.11 11 14.2 11 14.31 11C13.2234 14.7898 10.7158 18.0139 7.31 20H18C18.5304 20 19.0391 19.7893 19.4142 19.4142C19.7893 19.0391 20 18.5304 20 18V2C20 1.46957 19.7893 0.960859 19.4142 0.585786C19.0391 0.210714 18.5304 0 18 0V0ZM14 9C13.4067 9 12.8266 8.82405 12.3333 8.49441C11.8399 8.16476 11.4554 7.69623 11.2284 7.14805C11.0013 6.59987 10.9419 5.99667 11.0576 5.41473C11.1734 4.83279 11.4591 4.29824 11.8787 3.87868C12.2982 3.45912 12.8328 3.1734 13.4147 3.05764C13.9967 2.94189 14.5999 3.0013 15.1481 3.22836C15.6962 3.45542 16.1648 3.83994 16.4944 4.33329C16.8241 4.82664 17 5.40666 17 6C17 6.79565 16.6839 7.55871 16.1213 8.12132C15.5587 8.68393 14.7957 9 14 9Z" fill="#8C9099"></path><path d="M19.94 1.54006C19.94 1.45006 19.94 1.35006 19.86 1.26006C19.8414 1.22776 19.8247 1.19436 19.81 1.16006L19.69 0.940059L19.62 0.830059L19.51 0.660059C19.4821 0.618792 19.4485 0.581747 19.41 0.550059L19.22 0.420059L19.08 0.320059C19.0366 0.29081 18.9895 0.267283 18.94 0.250059C18.8034 0.172451 18.6594 0.108797 18.51 0.0600586C18.5241 0.206388 18.5241 0.353729 18.51 0.500059V16.7501C18.51 17.2142 18.3256 17.6593 17.9975 17.9875C17.6693 18.3157 17.2241 18.5001 16.76 18.5001H9.41002C8.74004 19.0592 8.02418 19.561 7.27002 20.0001H18C18.5305 20.0001 19.0392 19.7893 19.4142 19.4143C19.7893 19.0392 20 18.5305 20 18.0001V2.00006C20.0158 1.87054 20.0158 1.73958 20 1.61006C19.9847 1.58307 19.9644 1.5593 19.94 1.54006Z" fill="#414952"></path></svg>
