<?xml version="1.0" encoding="iso-8859-1"?>
<!-- Uploaded to: SVG Repo, www.svgrepo.com, Generator: SVG Repo Mixer Tools -->
<svg fill="#cccccc" height="800px" width="800px" version="1.1" id="Layer_1" xmlns="http://www.w3.org/2000/svg" xmlns:xlink="http://www.w3.org/1999/xlink"
	 viewBox="0 0 512 512" xml:space="preserve">
<g>
	<g>
		<path d="M506.622,39.527L470.119,3.024c-4.032-4.032-10.565-4.032-14.597,0l-91.797,91.797
			c-16.019-10.454-37.753-8.649-51.806,5.424L5.378,406.785c-4.032,4.032-4.032,10.565,0,14.597l87.593,87.593
			c2.016,2.016,4.657,3.024,7.299,3.024c2.641,0,5.282-1.008,7.299-3.024l92.215-92.215c13.256,16.518,33.592,27.123,56.368,27.123
			c39.84,0,72.26-32.42,72.26-72.26c0-0.474-0.028-0.943-0.038-1.416c0.007-0.292-0.003-0.585-0.02-0.877
			c-1.22-38.781-33.134-69.967-72.202-69.967c-39.84,0-72.26,32.42-72.26,72.26c0,9.431,1.835,18.433,5.134,26.699L100.27,487.08
			l-72.996-72.996l299.242-299.242c8.065-8.085,21.16-8.115,29.184-0.091l1.31,1.449c1.936,1.956,4.567,3.183,7.309,3.183
			c0.01,0,0.01,0,0.02,0c2.742,0,5.363-1.217,7.299-3.153l91.182-91.245l21.906,21.873l-91.182,91.167
			c-4.032,4.032-4.032,10.557,0,14.59l6.018,6.013c8.034,8.045,8.034,21.127-0.01,29.172l-96.737,96.727
			c-4.032,4.032-4.032,10.562,0,14.597c4.032,4.03,10.565,4.03,14.597-0.003l96.737-96.727c7.792-7.792,12.087-18.156,12.097-29.184
			c0-10.413-3.831-20.252-10.837-27.874l91.212-91.212C510.654,50.092,510.654,43.56,506.622,39.527z M256.151,320.009
			c26.036,0,47.577,19.401,51.062,44.495c-7.021,3.738-14.824,5.729-22.896,5.729c-25.948,0-47.168-20.374-48.668-45.951
			C241.94,321.546,248.865,320.009,256.151,320.009z M216.916,338.175c7.52,30.233,34.88,52.703,67.401,52.703
			c7.152,0,14.166-1.081,20.852-3.183c-6.777,20.608-26.175,35.543-49.018,35.543c-18.645,0-34.963-9.97-44.036-24.829
			c-0.325-2.087-1.263-4.095-2.871-5.706c-0.083-0.081-0.179-0.134-0.262-0.212c-2.838-6.389-4.446-13.438-4.446-20.868
			C204.537,358.866,209.217,347.194,216.916,338.175z"/>
	</g>
</g>
</svg>
