<svg width="15" height="16" viewBox="0 0 15 16" fill="none" xmlns="http://www.w3.org/2000/svg"><path d="M5.40086 3.84C2.92662 3.84 0.920859 2.98039 0.920859 1.92C0.920859 0.859613 2.92662 0 5.40086 0C7.8751 0 9.88086 0.859613 9.88086 1.92C9.88086 2.98039 7.8751 3.84 5.40086 3.84Z" fill="#8C9099"></path><path d="M10.52 10.8799C12.4086 10.8799 13.9779 10.4709 15 9.78418V10.8799C15 11.9403 12.9942 12.7999 10.52 12.7999C8.04576 12.7999 6.04 11.9403 6.04 10.8799V9.78418C7.06208 10.4709 8.63136 10.8799 10.52 10.8799Z" fill="#8C9099"></path><path d="M10.52 14.0801C12.4086 14.0801 13.9779 13.6711 15 12.9844V14.0801C15 15.1405 12.9942 16.0001 10.52 16.0001C8.04576 16.0001 6.04 15.1405 6.04 14.0801V12.9844C7.06208 13.6711 8.63136 14.0801 10.52 14.0801Z" fill="#8C9099"></path><path d="M5.40062 5.12009C6.07966 5.12009 6.71518 5.06505 7.30078 4.96585C6.02334 5.40809 5.14846 6.12809 4.86302 7.02537C2.64286 6.91081 0.920621 6.10249 0.920621 5.12009V4.02441C1.9427 4.71113 3.51198 5.12009 5.40062 5.12009Z" fill="#8C9099"></path><path d="M10.52 9.59977C8.04576 9.59977 6.04 8.74015 6.04 7.67977C6.04 6.61938 8.04576 5.75977 10.52 5.75977C12.9942 5.75977 15 6.61938 15 7.67977C15 8.74015 12.9942 9.59977 10.52 9.59977Z" fill="#8C9099"></path><path d="M4.75977 8.30301V10.2185C2.58953 10.0854 0.919765 9.28733 0.919765 8.32029V7.22461C1.82345 7.83197 3.15721 8.22109 4.75977 8.30301Z" fill="#8C9099"></path><path d="M4.75977 11.5022V13.4177C2.58953 13.2846 0.919765 12.4865 0.919765 11.5195V10.4238C1.82345 11.0312 3.15721 11.4203 4.75977 11.5022Z" fill="#8C9099"></path></svg>
