<svg width="20" height="18" viewBox="0 0 20 18" fill="none" xmlns="http://www.w3.org/2000/svg"><g clip-path="url(#clip0_3985_1835)"><path d="M9.99994 6.61C9.99045 6.38814 10.0551 6.16944 10.1836 5.98838C10.3122 5.80732 10.4974 5.67419 10.7099 5.61L19.7099 2.91C19.5931 2.77207 19.441 2.66839 19.2699 2.61L10.8599 0.129998C10.2989 -0.0378803 9.70098 -0.0378803 9.13994 0.129998L0.709936 2.65C0.497359 2.71419 0.312195 2.84732 0.183641 3.02838C0.0550864 3.20944 -0.0095455 3.42814 -6.41654e-05 3.65V4.87H2.99994L9.99994 6.87V6.61ZM7.99994 2.37C7.99994 1.89 8.89994 1.51 9.99994 1.51C11.0999 1.51 11.9999 1.89 11.9999 2.37C11.9999 2.85 11.0999 3.23 9.99994 3.23C8.89994 3.23 7.99994 2.84 7.99994 2.37Z" fill="#414952"></path><path d="M11.29 17.48C11.137 17.5265 10.9751 17.5357 10.8179 17.5067C10.6607 17.4778 10.5127 17.4115 10.3864 17.3136C10.26 17.2157 10.159 17.0889 10.0918 16.9438C10.0245 16.7988 9.99304 16.6397 9.99996 16.48V6.61001C10.0094 6.38815 9.94481 6.16945 9.81625 5.98839C9.6877 5.80732 9.50254 5.6742 9.28996 5.61001L1.28996 3.21001C1.13701 3.1635 0.975137 3.15433 0.817915 3.18328C0.660694 3.21224 0.512704 3.27846 0.386356 3.37641C0.260008 3.47435 0.158983 3.60116 0.0917524 3.7462C0.0245215 3.89124 -0.0069558 4.05029 -4.04143e-05 4.21001V14.12C-0.00952175 14.3419 0.0551102 14.5606 0.183665 14.7416C0.312219 14.9227 0.497383 15.0558 0.70996 15.12L5.70996 16.61L9.17996 17.61C9.741 17.7779 10.3389 17.7779 10.9 17.61L11.29 17.48ZM1.56996 7.87001C0.99996 7.87001 0.49996 7.20001 0.49996 6.37001C0.49996 5.54001 0.99996 4.87001 1.56996 4.87001C2.13996 4.87001 2.63996 5.54001 2.63996 6.37001C2.63996 7.20001 2.15996 7.87001 1.56996 7.87001ZM4.56996 11.87C3.97996 11.87 3.49996 11.2 3.49996 10.37C3.49996 9.54001 3.99996 8.87001 4.56996 8.87001C5.13996 8.87001 5.63996 9.54001 5.63996 10.37C5.63996 11.2 5.15996 11.87 4.56996 11.87V11.87ZM7.56996 15.87C6.97996 15.87 6.49996 15.2 6.49996 14.37C6.49996 13.54 6.97996 12.87 7.56996 12.87C8.15996 12.87 8.63996 13.54 8.63996 14.37C8.63996 15.2 8.15996 15.87 7.56996 15.87V15.87Z" fill="#414952"></path><path d="M12.57 9.87C11.98 9.87 11.5 9.2 11.5 8.37C11.5 7.54 11.98 6.87 12.57 6.87C13.16 6.87 13.64 7.54 13.64 8.37C13.64 9.2 13.16 9.87 12.57 9.87Z" fill="#8C9099"></path><path d="M17.57 13.87C16.98 13.87 16.5 13.2 16.5 12.37C16.5 11.54 16.98 10.87 17.57 10.87C18.16 10.87 18.64 11.54 18.64 12.37C18.64 13.2 18.16 13.87 17.57 13.87Z" fill="#8C9099"></path></g><defs><clipPath id="clip0_3985_1835"><rect width="19.73" height="17.74" fill="white"></rect></clipPath></defs></svg>
