<svg data-cy="ic-betslip" xmlns="http://www.w3.org/2000/svg" width="32" height="32" viewBox="0 0 32 32" style="fill: currentcolor; color: rgb(255, 255, 255); width: auto; height: 32px;">
    <path fill-rule="evenodd" clip-rule="evenodd" d="M9.125 2C6.84683 2 5 3.8804 5 6.2V25.8C5 28.1196 6.84683 30 9.125 30H22.875C25.1532 30 27 28.1196 27 25.8V6.2C27 3.8804 25.1532 2 22.875 2H9.125ZM11.5 21C10.6716 21 10 21.6716 10 22.5C10 23.3284 10.6716 24 11.5 24H20.5C21.3284 24 22 23.3284 22 22.5C22 21.6716 21.3284 21 20.5 21H11.5ZM10 16.5C10 15.6716 10.6716 15 11.5 15H20.5C21.3284 15 22 15.6716 22 16.5C22 17.3284 21.3284 18 20.5 18H11.5C10.6716 18 10 17.3284 10 16.5ZM11.5 9C10.6716 9 10 9.67157 10 10.5C10 11.3284 10.6716 12 11.5 12H20.5C21.3284 12 22 11.3284 22 10.5C22 9.67157 21.3284 9 20.5 9H11.5Z"></path>
</svg>
