<svg width="20" height="20" viewBox="0 0 20 20" fill="none" xmlns="http://www.w3.org/2000/svg"><g clip-path="url(#clip0_3563_7687)"><path d="M1.71997 10.59C1.77558 11.3767 1.94397 12.1512 2.21997 12.89C2.51165 13.1316 2.85313 13.3058 3.21997 13.4C3.3377 12.7601 3.60496 12.157 3.99997 11.64C3.49186 10.6079 3.23488 9.47029 3.24997 8.31999L2.91997 8.20999C2.41023 8.94306 2.00626 9.74426 1.71997 10.59Z" fill="#414952"></path><path d="M12.41 3.64999C12.3288 3.12998 12.1913 2.62032 12 2.12999C11.0229 1.8678 10.0056 1.7898 9 1.89999C8.24483 2.23884 7.56488 2.725 7 3.32999C7.06283 3.60806 7.14299 3.88193 7.24 4.14999C8.30954 4.19982 9.36061 4.44733 10.34 4.87999C10.952 4.35098 11.6528 3.93455 12.41 3.64999Z" fill="#414952"></path><path d="M4.00001 4.69999C3.71645 4.9662 3.49168 5.28876 3.34013 5.64696C3.18858 6.00516 3.1136 6.3911 3.12001 6.77999L3.90001 6.99999C4.41022 6.113 5.08976 5.33493 5.90001 4.70999C5.76537 4.35025 5.65184 3.98296 5.56001 3.60999C4.92723 3.77688 4.37434 4.1632 4.00001 4.69999Z" fill="#8C9099"></path><path d="M12.64 17.69L12.83 17.61V17.49C11.6784 17.5084 10.5383 17.2585 9.5 16.76C8.89402 17.1821 8.21633 17.4904 7.5 17.67C7.5 17.74 7.5 17.79 7.56 17.85C9.2278 18.334 11.006 18.278 12.64 17.69Z" fill="#8C9099"></path><path d="M6.75001 5.89001C6.02497 6.43435 5.42769 7.1306 5.00001 7.93001C4.91025 9.02936 5.14309 10.131 5.67001 11.1C6.46426 11.398 7.28942 11.6059 8.13001 11.72L10.55 9.16001L9.94001 6.63001C8.95393 6.14391 7.86939 5.89074 6.77001 5.89001H6.75001Z" fill="#8C9099"></path><path d="M5.19995 12.44C4.80002 12.9441 4.57847 13.5666 4.56995 14.21C4.99859 15.1286 5.74936 15.858 6.67995 16.26C6.71216 16.2765 6.74236 16.2966 6.76995 16.32C7.49137 16.2061 8.17622 15.9253 8.76995 15.5C8.44223 14.7383 8.18451 13.9484 7.99995 13.14C7.04246 13.0169 6.10271 12.782 5.19995 12.44Z" fill="#8C9099"></path><path d="M15.42 6.99999C14.72 5.76999 14 5.08999 13.35 4.89999C12.5755 5.0945 11.8588 5.47169 11.26 5.99999L12 8.82999L14.69 9.21999C14.9611 8.92221 15.1663 8.57052 15.2921 8.18796C15.4179 7.80539 15.4615 7.40057 15.42 6.99999Z" fill="#8C9099"></path><path d="M15.24 13.69C15.1284 12.6194 14.8198 11.5786 14.33 10.62L11.92 10.28L9.42004 12.92C9.58333 13.6629 9.81429 14.3892 10.11 15.09C11.0766 15.5907 12.1657 15.8058 13.25 15.71C14.0561 15.1939 14.7361 14.5037 15.24 13.69Z" fill="#414952"></path><path d="M16.8999 5.88C16.2128 4.69808 15.2396 3.70777 14.0699 3C14.0699 3.23 14.1599 3.45 14.1999 3.66C15.1477 4.1604 15.9268 4.92911 16.4399 5.87C16.5933 5.86321 16.747 5.86655 16.8999 5.88Z" fill="#8C9099"></path><path d="M17.3 12.87H17.52C17.8501 11.9496 18.0126 10.9776 18 9.99999C17.9996 9.22225 17.8919 8.4483 17.68 7.69999C17.4006 7.64038 17.1157 7.61022 16.83 7.60999C16.7597 8.4495 16.4431 9.24959 15.92 9.90999C16.395 10.836 16.7319 11.8265 16.92 12.85L17.3 12.87Z" fill="#8C9099"></path><path d="M10 20C8.02219 20 6.08879 19.4135 4.4443 18.3147C2.79981 17.2159 1.51809 15.6541 0.761209 13.8268C0.00433284 11.9996 -0.193701 9.98891 0.192152 8.0491C0.578004 6.10929 1.53041 4.32746 2.92894 2.92894C4.32746 1.53041 6.10929 0.578004 8.0491 0.192152C9.98891 -0.193701 11.9996 0.00433284 13.8268 0.761209C15.6541 1.51809 17.2159 2.79981 18.3147 4.4443C19.4135 6.08879 20 8.02219 20 10C20 12.6522 18.9464 15.1957 17.0711 17.0711C15.1957 18.9464 12.6522 20 10 20ZM10 1C8.21997 1 6.47991 1.52785 4.99987 2.51678C3.51983 3.50571 2.36628 4.91132 1.68509 6.55585C1.0039 8.20039 0.82567 10.01 1.17294 11.7558C1.5202 13.5016 2.37737 15.1053 3.63604 16.364C4.89472 17.6226 6.49836 18.4798 8.24419 18.8271C9.99002 19.1743 11.7996 18.9961 13.4442 18.3149C15.0887 17.6337 16.4943 16.4802 17.4832 15.0001C18.4722 13.5201 19 11.78 19 10C19 7.61306 18.0518 5.32387 16.364 3.63604C14.6761 1.94822 12.387 1 10 1Z" fill="#8C9099"></path></g><defs><clipPath id="clip0_3563_7687"><rect width="20" height="20" fill="white"></rect></clipPath></defs></svg>
