<?xml version="1.0" encoding="utf-8"?><!-- Uploaded to: SVG Repo, www.svgrepo.com, Generator: SVG Repo Mixer Tools -->
<svg fill="#cccccc" width="800px" height="800px" viewBox="0 -1 16 16" id="historic-16px" xmlns="http://www.w3.org/2000/svg">
  <path id="Path_89" data-name="Path 89" d="M-5,8a7.008,7.008,0,0,1-7,7,.5.5,0,0,1-.5-.5A.5.5,0,0,1-12,14,6.006,6.006,0,0,0-6,8a6.006,6.006,0,0,0-6-6,6.006,6.006,0,0,0-6,6v.293l1.146-1.147a.5.5,0,0,1,.708,0,.5.5,0,0,1,0,.708l-2,2a.518.518,0,0,1-.163.109A.5.5,0,0,1-18.5,10a.5.5,0,0,1-.191-.038.518.518,0,0,1-.163-.109l-2-2a.5.5,0,0,1,0-.708.5.5,0,0,1,.708,0L-19,8.293V8a7.008,7.008,0,0,1,7-7A7.008,7.008,0,0,1-5,8Zm-7-4a.5.5,0,0,0-.5.5V8a.5.5,0,0,0,.5.5h3.5A.5.5,0,0,0-8,8a.5.5,0,0,0-.5-.5h-3v-3A.5.5,0,0,0-12,4Z" transform="translate(21 -1)"/>
</svg>
