<svg fill="" stroke="currentColor" width="32" height="32" viewBox="0 0 32 32" xmlns="http://www.w3.org/2000/svg" style="fill: currentcolor; color: inherit; width: auto; height: 32px;">
    <path fill-rule="evenodd" clip-rule="evenodd" d="M16.669 8.94762C16.2887 8.60535 15.7113 8.60535 15.331 8.94762L7.33104 16.1476C7.12032 16.3373 7 16.6074 7 16.8909V23.0002C7 23.5525 7.44772 24.0002 8 24.0002H11.2727C11.825 24.0002 12.2727 23.5525 12.2727 23.0002V21.6002C12.2727 19.9433 13.6159 18.6002 15.2727 18.6002H16.7273C18.3841 18.6002 19.7273 19.9433 19.7273 21.6002V23.0002C19.7273 23.5525 20.175 24.0002 20.7273 24.0002H24C24.5523 24.0002 25 23.5525 25 23.0002V16.8909C25 16.6074 24.8797 16.3373 24.669 16.1476L16.669 8.94762ZM13.9931 7.46104C15.134 6.43421 16.866 6.43421 18.0069 7.46104L26.0069 14.661C26.639 15.23 27 16.0405 27 16.8909V23.0002C27 24.657 25.6569 26.0002 24 26.0002H20.7273C19.0704 26.0002 17.7273 24.657 17.7273 23.0002V21.6002C17.7273 21.0479 17.2796 20.6002 16.7273 20.6002H15.2727C14.7204 20.6002 14.2727 21.0479 14.2727 21.6002V23.0002C14.2727 24.657 12.9296 26.0002 11.2727 26.0002H8C6.34315 26.0002 5 24.657 5 23.0002V16.8909C5 16.0405 5.36096 15.23 5.99311 14.661L13.9931 7.46104Z"></path>
</svg>
