<svg width="20" height="20" viewBox="0 0 20 20" fill="none" xmlns="http://www.w3.org/2000/svg"><path d="M12 0H8C7.72386 0 7.5 0.223858 7.5 0.5V4.5C7.5 4.77614 7.72386 5 8 5H12C12.2761 5 12.5 4.77614 12.5 4.5V0.5C12.5 0.223858 12.2761 0 12 0Z" fill="#8C9099"></path><path d="M4.5 0H0.5C0.223858 0 0 0.223858 0 0.5V4.5C0 4.77614 0.223858 5 0.5 5H4.5C4.77614 5 5 4.77614 5 4.5V0.5C5 0.223858 4.77614 0 4.5 0Z" fill="#8C9099"></path><path d="M19.5 7.5H15.5C15.2239 7.5 15 7.72386 15 8V12C15 12.2761 15.2239 12.5 15.5 12.5H19.5C19.7761 12.5 20 12.2761 20 12V8C20 7.72386 19.7761 7.5 19.5 7.5Z" fill="#8C9099"></path><path d="M19.5 15H15.5C15.2239 15 15 15.2239 15 15.5V19.5C15 19.7761 15.2239 20 15.5 20H19.5C19.7761 20 20 19.7761 20 19.5V15.5C20 15.2239 19.7761 15 19.5 15Z" fill="#8C9099"></path><path d="M19.5 0H15.5C15.3674 0 15.2402 0.0526784 15.1464 0.146447C15.0527 0.240215 15 0.367392 15 0.5V4.5C15 4.63261 15.0527 4.75979 15.1464 4.85355C15.2402 4.94732 15.3674 5 15.5 5H19.5C19.6326 5 19.7598 4.94732 19.8536 4.85355C19.9473 4.75979 20 4.63261 20 4.5V0.5C20 0.367392 19.9473 0.240215 19.8536 0.146447C19.7598 0.0526784 19.6326 0 19.5 0V0ZM17.5 3.75C17.2528 3.75 17.0111 3.67669 16.8055 3.53934C16.6 3.40199 16.4398 3.20676 16.3451 2.97835C16.2505 2.74995 16.2258 2.49861 16.274 2.25614C16.3223 2.01366 16.4413 1.79093 16.6161 1.61612C16.7909 1.4413 17.0137 1.32225 17.2561 1.27402C17.4986 1.22579 17.7499 1.25054 17.9784 1.34515C18.2068 1.43976 18.402 1.59998 18.5393 1.80554C18.6767 2.0111 18.75 2.25277 18.75 2.5C18.75 2.83152 18.6183 3.14946 18.3839 3.38388C18.1495 3.6183 17.8315 3.75 17.5 3.75Z" fill="#414952"></path><path d="M12 7.5H8C7.86739 7.5 7.74021 7.55268 7.64645 7.64645C7.55268 7.74021 7.5 7.86739 7.5 8V12C7.5 12.1326 7.55268 12.2598 7.64645 12.3536C7.74021 12.4473 7.86739 12.5 8 12.5H12C12.1326 12.5 12.2598 12.4473 12.3536 12.3536C12.4473 12.2598 12.5 12.1326 12.5 12V8C12.5 7.86739 12.4473 7.74021 12.3536 7.64645C12.2598 7.55268 12.1326 7.5 12 7.5ZM10 11.25C9.75277 11.25 9.5111 11.1767 9.30554 11.0393C9.09998 10.902 8.93976 10.7068 8.84515 10.4784C8.75054 10.2499 8.72579 9.99861 8.77402 9.75614C8.82225 9.51366 8.9413 9.29093 9.11612 9.11612C9.29093 8.9413 9.51366 8.82225 9.75614 8.77402C9.99861 8.72579 10.2499 8.75054 10.4784 8.84515C10.7068 8.93976 10.902 9.09998 11.0393 9.30554C11.1767 9.5111 11.25 9.75277 11.25 10C11.25 10.3315 11.1183 10.6495 10.8839 10.8839C10.6495 11.1183 10.3315 11.25 10 11.25Z" fill="#414952"></path><path d="M10 18.75C10.6904 18.75 11.25 18.1904 11.25 17.5C11.25 16.8096 10.6904 16.25 10 16.25C9.30964 16.25 8.75 16.8096 8.75 17.5C8.75 18.1904 9.30964 18.75 10 18.75Z" fill="#8C9099"></path><path d="M2.5 11.25C3.19036 11.25 3.75 10.6904 3.75 10C3.75 9.30964 3.19036 8.75 2.5 8.75C1.80964 8.75 1.25 9.30964 1.25 10C1.25 10.6904 1.80964 11.25 2.5 11.25Z" fill="#8C9099"></path><path d="M4.5 15H0.5C0.367392 15 0.240215 15.0527 0.146447 15.1464C0.0526784 15.2402 0 15.3674 0 15.5L0 19.5C0 19.6326 0.0526784 19.7598 0.146447 19.8536C0.240215 19.9473 0.367392 20 0.5 20H4.5C4.63261 20 4.75979 19.9473 4.85355 19.8536C4.94732 19.7598 5 19.6326 5 19.5V15.5C5 15.3674 4.94732 15.2402 4.85355 15.1464C4.75979 15.0527 4.63261 15 4.5 15ZM2.5 18.75C2.25277 18.75 2.0111 18.6767 1.80554 18.5393C1.59998 18.402 1.43976 18.2068 1.34515 17.9784C1.25054 17.7499 1.22579 17.4986 1.27402 17.2561C1.32225 17.0137 1.4413 16.7909 1.61612 16.6161C1.79093 16.4413 2.01366 16.3223 2.25614 16.274C2.49861 16.2258 2.74995 16.2505 2.97835 16.3451C3.20676 16.4398 3.40199 16.6 3.53934 16.8055C3.67669 17.0111 3.75 17.2528 3.75 17.5C3.75 17.8315 3.6183 18.1495 3.38388 18.3839C3.14946 18.6183 2.83152 18.75 2.5 18.75Z" fill="#414952"></path></svg>
