<svg width="20" height="20" viewBox="0 0 20 20" fill="none" xmlns="http://www.w3.org/2000/svg"><path fill-rule="evenodd" clip-rule="evenodd" d="M16.0889 6.31927L15.2989 7.09927C14.9289 7.46927 13.5889 6.72927 12.2989 5.43927C11.8226 4.96474 11.3969 4.44192 11.0289 3.87927C10.6689 3.30927 10.4989 2.87927 10.5889 2.57927C9.99471 2.44642 9.38773 2.37935 8.77888 2.37927C6.83085 2.37942 4.93857 3.02963 3.40187 4.22687C1.86517 5.42412 0.771943 7.09993 0.295399 8.98877C-0.181146 10.8776 -0.0137504 12.8715 0.771062 14.6544C1.55588 16.4374 2.91322 17.9074 4.62803 18.8317C6.34284 19.756 8.31705 20.0816 10.2378 19.7569C12.1586 19.4322 13.9161 18.4759 15.2319 17.0394C16.5477 15.6029 17.3465 13.7684 17.5017 11.8265C17.657 9.88468 17.1597 7.94657 16.0889 6.31927ZM5.33888 7.05927C4.33888 8.11927 3.09888 8.62927 2.68888 8.21927C2.27888 7.80927 2.79888 6.61927 3.84888 5.56927C4.89888 4.51927 6.08888 3.99927 6.49888 4.40927C6.90888 4.81927 6.38888 5.99927 5.33888 7.05927Z" fill="#414952"></path><path fill-rule="evenodd" clip-rule="evenodd" d="M10.0289 18.6294C8.37383 18.6292 6.75272 18.1596 5.35379 17.2751C3.95485 16.3905 2.83547 15.1274 2.12559 13.6323C1.41571 12.1371 1.14445 10.4713 1.34329 8.82817C1.54213 7.18505 2.20291 5.63202 3.24894 4.34937C2.29467 5.12084 1.51335 6.08441 0.955698 7.17749C0.39805 8.27057 0.0765523 9.46873 0.0120843 10.6941C-0.0523837 11.9196 0.141619 13.1448 0.581494 14.2904C1.02137 15.436 1.69728 16.4762 2.56533 17.3435C3.43338 18.2109 4.47416 18.8859 5.62008 19.3249C6.766 19.7638 7.99143 19.9568 9.21679 19.8914C10.4422 19.8259 11.6401 19.5034 12.7327 18.9449C13.8253 18.3864 14.7882 17.6043 15.5589 16.6494C14.0021 17.9327 12.0465 18.6329 10.0289 18.6294Z" fill="#414952"></path><path d="M14.529 3.87937C14.4516 3.87953 14.3756 3.8588 14.309 3.81937C14.2498 3.79057 14.1969 3.75037 14.1533 3.70108C14.1097 3.65179 14.0762 3.59437 14.0549 3.53212C14.0335 3.46988 14.0246 3.40402 14.0288 3.33834C14.0329 3.27266 14.05 3.20844 14.079 3.14937C14.2144 2.88712 14.3898 2.64758 14.599 2.43937C13.439 1.36937 12.309 0.779368 12.029 1.11937C11.749 1.45937 12.399 2.81937 13.689 4.11937C14.979 5.41937 16.319 6.11937 16.689 5.77937C17.059 5.43937 16.439 4.31937 15.369 3.14937C15.2319 3.27988 15.1171 3.43188 15.029 3.59937C14.9822 3.68989 14.9099 3.76468 14.821 3.81446C14.7321 3.86424 14.6306 3.88681 14.529 3.87937Z" fill="#414952"></path><path d="M19.6189 0.0493271C19.5592 0.0206524 19.4944 0.0041153 19.4283 0.000675356C19.3622 -0.00276459 19.2961 0.00696118 19.2337 0.0292882C19.1714 0.0516153 19.1141 0.086099 19.0652 0.130738C19.0163 0.175377 18.9768 0.229283 18.9489 0.289327C18.6189 0.989327 17.8389 1.17933 16.9489 1.39933C16.092 1.51215 15.2826 1.85805 14.6089 2.39933L14.9789 2.73933L15.3189 3.09933C15.8608 2.68431 16.5022 2.4188 17.1789 2.32933C17.7217 2.28984 18.2475 2.12248 18.7133 1.84092C19.1791 1.55937 19.5716 1.17161 19.8589 0.709327C19.8874 0.650385 19.9038 0.586332 19.9071 0.520952C19.9104 0.455572 19.9006 0.39019 19.8782 0.328667C19.8558 0.267144 19.8214 0.210728 19.7768 0.16275C19.7323 0.114772 19.6786 0.0762053 19.6189 0.0493271Z" fill="#414952"></path></svg>

