<svg width="20" height="20" viewBox="0 0 20 20" fill="none" xmlns="http://www.w3.org/2000/svg"><path d="M14 15V18C17.31 18 20 17.1 20 16V13C20 14.1 17.31 15 14 15Z" fill="white"></path><path d="M14 6V10C17.31 10 20 9.1 20 8C20 6.9 17.31 6 14 6Z" fill="white"></path><path d="M14 11V14C17.31 14 20 13.1 20 12V9C20 10.1 17.31 11 14 11Z" fill="white"></path><path d="M6 13C2.69 13 0 12.1 0 11V14C0 15.1 2.69 16 6 16C9.31 16 12 15.1 12 14V11C12 12.1 9.31 13 6 13Z" fill="white"></path><path d="M6 9C2.69 9 0 8.1 0 7V10C0 11.1 2.69 12 6 12C9.31 12 12 11.1 12 10V7C12 8.1 9.31 9 6 9Z" fill="white"></path><path d="M6 4C9.31371 4 12 3.10457 12 2C12 0.89543 9.31371 0 6 0C2.68629 0 0 0.89543 0 2C0 3.10457 2.68629 4 6 4Z" fill="white"></path><path d="M6 5C2.69 5 0 4.1 0 3V6C0 7.1 2.69 8 6 8C9.31 8 12 7.1 12 6V3C12 4.1 9.31 5 6 5Z" fill="white"></path><path d="M10 4.49V7.49C11.22 7.12 12 6.59 12 6V3C12 3.59 11.22 4.12 10 4.49Z" fill="#8C9099"></path><path d="M10 12.49V15.49C11.22 15.12 12 14.59 12 14V11C12 11.59 11.22 12.12 10 12.49Z" fill="#8C9099"></path><path d="M6 17C2.69 17 0 16.1 0 15V18C0 19.1 2.69 20 6 20C9.31 20 12 19.1 12 18V15C12 16.1 9.31 17 6 17Z" fill="white"></path><path d="M10 16.49V19.49C11.22 19.12 12 18.59 12 18V15C12 15.59 11.22 16.12 10 16.49Z" fill="#8C9099"></path><path d="M10 8.49V11.49C11.22 11.12 12 10.59 12 10V7C12 7.59 11.22 8.12 10 8.49Z" fill="#8C9099"></path><path d="M18 10.49V13.49C19.22 13.12 20 12.59 20 12V9C20 9.59 19.22 10.12 18 10.49Z" fill="#8C9099"></path><path d="M18 14.49V17.49C19.22 17.12 20 16.59 20 16V13C20 13.59 19.22 14.12 18 14.49Z" fill="#8C9099"></path></svg>
