<svg width="91" height="32" viewBox="0 0 91 32" fill="none" xmlns="http://www.w3.org/2000/svg"><g clip-path="url(#clip0_21543_2877)"><path fill-rule="evenodd" clip-rule="evenodd" d="M43.802 5.97895C40.7528 5.97918 38.281 8.46336 38.281 11.5278V29.8795C38.281 30.1916 38.0292 30.4447 37.7186 30.4447C37.408 30.4447 37.1562 30.1916 37.1562 29.8795V11.5278C37.1562 7.83897 40.1318 4.84863 43.8024 4.84863H43.8032L49.1952 4.8568C52.8556 4.8641 55.8192 7.84824 55.8192 11.5269V15.4331C55.8192 19.122 52.8434 22.1123 49.1729 22.1123H41.5541C41.2435 22.1123 40.9917 21.8593 40.9917 21.5472C40.9917 21.235 41.2435 20.982 41.5541 20.982H49.1729C52.2223 20.982 54.6944 18.4977 54.6944 15.4331V11.5269C54.6944 8.47171 52.2332 5.99332 49.1933 5.98711C49.1932 5.98711 49.1931 5.98711 49.193 5.98711L43.8024 5.97895C43.8022 5.97895 43.8021 5.97895 43.802 5.97895Z" fill="#BCBFC7"></path><path fill-rule="evenodd" clip-rule="evenodd" d="M56.2012 5.41184C56.2012 5.09971 56.453 4.84668 56.7635 4.84668H59.1023C60.7919 4.84668 62.1614 6.2231 62.1614 7.92099V21.6297C62.1614 21.9419 61.9096 22.1949 61.599 22.1949C61.2884 22.1949 61.0366 21.9419 61.0366 21.6297V7.92099C61.0366 6.84728 60.1707 5.977 59.1023 5.977H56.7635C56.453 5.977 56.2012 5.72397 56.2012 5.41184Z" fill="#BCBFC7"></path><path d="M61.0999 3.28776L60.0393 2.22175C59.776 1.95729 59.776 1.52845 60.0393 1.26399L61.0992 0.198646C61.3629 -0.0662153 61.7902 -0.0662153 62.0536 0.198646L63.1135 1.26399C63.3768 1.52845 63.3768 1.95729 63.1135 2.22175L62.0529 3.28776C61.7898 3.55222 61.3632 3.55222 61.0999 3.28776Z" fill="#BCBFC7"></path><path fill-rule="evenodd" clip-rule="evenodd" d="M65.5234 5.39914C65.5234 5.08701 65.7752 4.83398 66.0858 4.83398H68.4053C69.7477 4.83398 71.0351 5.36993 71.9841 6.32369L77.4093 11.7758L77.4094 11.7758C77.8924 12.2613 78.6757 12.2614 79.1589 11.7758L84.5643 6.34365L84.5643 6.34362C85.5134 5.38991 86.8006 4.85395 88.1431 4.85395H90.0289C90.3395 4.85395 90.5913 5.10698 90.5913 5.4191C90.5913 5.73123 90.3395 5.98426 90.0289 5.98426H88.1431C87.099 5.98426 86.0978 6.4011 85.3595 7.14294L79.9542 12.575C79.0318 13.502 77.5363 13.5021 76.614 12.575C76.614 12.575 76.614 12.575 76.614 12.575L71.1888 7.12295C70.4507 6.38116 69.4494 5.9643 68.4053 5.9643H66.0858C65.7752 5.9643 65.5234 5.71127 65.5234 5.39914Z" fill="#BCBFC7"></path><path fill-rule="evenodd" clip-rule="evenodd" d="M79.1589 15.1332C78.6757 14.6476 77.8924 14.6476 77.4094 15.1331L77.4093 15.1332L71.9841 20.5853C71.0351 21.539 69.7477 22.075 68.4053 22.075H66.0858C65.7752 22.075 65.5234 21.822 65.5234 21.5098C65.5234 21.1977 65.7752 20.9447 66.0858 20.9447H68.4053C69.4494 20.9447 70.4507 20.5278 71.1888 19.786L76.614 14.334C76.614 14.3339 76.614 14.3339 76.614 14.3339C77.5363 13.4069 79.0318 13.407 79.9542 14.3339L85.3595 19.766C85.3596 19.766 85.3596 19.766 85.3596 19.7661C86.0979 20.5079 87.099 20.9247 88.1431 20.9247H90.0289C90.3395 20.9247 90.5913 21.1777 90.5913 21.4899C90.5913 21.802 90.3395 22.055 90.0289 22.055H88.1431C86.8006 22.055 85.5134 21.5191 84.5643 20.5653L84.5643 20.5653L79.1589 15.1332Z" fill="#BCBFC7"></path><path d="M23.8913 24.9926C22.7272 24.9926 21.6323 24.5371 20.8091 23.7102L16.3588 19.2377C16.0463 18.9229 15.5018 18.9238 15.1894 19.2377L10.7228 23.7266C9.89965 24.5534 8.80477 25.0089 7.6407 25.0089H6.76367L12.4002 30.6733C14.1604 32.4422 17.0144 32.4422 18.7748 30.6733L24.4273 24.9926H23.8913Z" fill="#BCBFC7"></path><path d="M7.64044 9.17262C8.80451 9.17262 9.8994 9.62812 10.7226 10.455L15.1892 14.9445C15.5108 15.2679 16.0361 15.2691 16.3586 14.9441L20.8089 10.4714C21.6321 9.64448 22.7269 9.18898 23.891 9.18898H24.427L18.7747 3.50846C17.0142 1.73937 14.1601 1.73937 12.3999 3.50846L6.76367 9.17264L7.64044 9.17262Z" fill="#BCBFC7"></path><path d="M29.1028 13.8878L25.687 10.4551C25.6118 10.4853 25.5303 10.5042 25.4443 10.5042H23.8913C23.0883 10.5042 22.3023 10.8315 21.735 11.4021L17.2848 15.8745C16.8683 16.293 16.3211 16.5024 15.7744 16.5024C15.2272 16.5024 14.6803 16.293 14.264 15.8749L9.79702 11.3858C9.22965 10.8151 8.44365 10.4879 7.64072 10.4879H5.73105C5.6496 10.4879 5.57349 10.4686 5.50163 10.4414L2.07223 13.8878C0.311862 15.6569 0.311862 18.525 2.07223 20.2941L5.50149 23.7403C5.57348 23.7131 5.6496 23.6939 5.73105 23.6939H7.64072C8.44365 23.6939 9.22965 23.3667 9.79702 22.7961L14.2636 18.3074C15.0709 17.4967 16.4783 17.4965 17.2848 18.3078L21.735 22.7798C22.3023 23.3503 23.0883 23.6776 23.8913 23.6776H25.4443C25.5303 23.6776 25.6118 23.6965 25.687 23.7268L29.1028 20.294C30.863 18.525 30.863 15.6569 29.1028 13.8878Z" fill="#BCBFC7"></path><path d="M42.356 28.3201C42.1039 28.3201 41.8105 28.3811 41.5203 28.4484V29.5666C41.7213 29.6404 41.9509 29.6759 42.171 29.6759C42.729 29.6759 42.9936 29.4868 42.9936 28.9928C42.9936 28.5285 42.7769 28.3201 42.356 28.3201ZM41.332 30.397V28.1854H41.4852L41.5012 28.2817C41.7594 28.2207 42.1165 28.1406 42.3717 28.1406C42.5793 28.1406 42.7768 28.1724 42.9426 28.3072C43.1341 28.4644 43.1946 28.7174 43.1946 28.9928C43.1946 29.2818 43.0988 29.554 42.8374 29.7045C42.6557 29.8071 42.4101 29.8488 42.19 29.8488C41.9635 29.8488 41.7468 29.8134 41.5203 29.7463V30.397H41.332Z" fill="#BCBFC7"></path><path d="M44.5978 28.3136C44.0396 28.3136 43.7909 28.49 43.7909 28.9836C43.7909 29.461 44.0364 29.6759 44.5978 29.6759C45.1526 29.6759 45.4014 29.5027 45.4014 29.0092C45.4014 28.5317 45.156 28.3136 44.5978 28.3136ZM45.3153 29.6759C45.1303 29.8103 44.8816 29.8489 44.5978 29.8489C44.3076 29.8489 44.0587 29.8072 43.877 29.6759C43.6729 29.5318 43.5898 29.2944 43.5898 28.9966C43.5898 28.7014 43.6729 28.4614 43.877 28.3136C44.0587 28.1824 44.3076 28.1406 44.5978 28.1406C44.8847 28.1406 45.1303 28.1824 45.3153 28.3136C45.5227 28.4614 45.6023 28.7014 45.6023 28.993C45.6023 29.2913 45.5194 29.5318 45.3153 29.6759Z" fill="#BCBFC7"></path><path d="M47.9544 29.8042L47.3325 28.4615H47.3195L46.7074 29.8042H46.5384L45.875 28.1855H46.0823L46.6341 29.5444H46.6469L47.2463 28.1855H47.4185L48.0341 29.5444H48.0469L48.5859 28.1855H48.7867L48.1234 29.8042H47.9544Z" fill="#BCBFC7"></path><path d="M49.9887 28.3104C49.4721 28.3104 49.2966 28.5411 49.2646 28.8747H50.7127C50.6968 28.5061 50.5084 28.3104 49.9887 28.3104ZM49.9824 29.8488C49.6728 29.8488 49.4721 29.804 49.3126 29.6692C49.1244 29.5058 49.0605 29.2688 49.0605 28.9964C49.0605 28.7368 49.1468 28.4612 49.3605 28.3041C49.539 28.1792 49.7591 28.1406 49.9887 28.1406C50.1961 28.1406 50.4352 28.163 50.6328 28.2978C50.8657 28.4547 50.9105 28.7305 50.9105 29.0444H49.2584C49.2646 29.3776 49.3732 29.6727 49.9981 29.6727C50.2949 29.6727 50.5723 29.6245 50.8306 29.5796V29.7494C50.5627 29.7977 50.2661 29.8488 49.9824 29.8488Z" fill="#BCBFC7"></path><path d="M51.4531 29.804V28.1854H51.6062L51.6223 28.2817C51.9634 28.1953 52.1229 28.1406 52.4227 28.1406H52.4451V28.3201H52.4003C52.1485 28.3201 51.9955 28.3552 51.6415 28.4484V29.804H51.4531Z" fill="#BCBFC7"></path><path d="M53.5375 28.3104C53.0209 28.3104 52.8455 28.5411 52.8135 28.8747H54.2615C54.2456 28.5061 54.0573 28.3104 53.5375 28.3104ZM53.5312 29.8488C53.2217 29.8488 53.0209 29.804 52.8615 29.6692C52.6731 29.5058 52.6094 29.2688 52.6094 28.9964C52.6094 28.7368 52.6956 28.4612 52.9093 28.3041C53.0878 28.1792 53.3079 28.1406 53.5375 28.1406C53.7449 28.1406 53.9841 28.163 54.1816 28.2978C54.4145 28.4547 54.4593 28.7305 54.4593 29.0444H52.8072C52.8135 29.3776 52.922 29.6727 53.5469 29.6727C53.8436 29.6727 54.121 29.6245 54.3795 29.5796V29.7494C54.1115 29.7977 53.8149 29.8488 53.5312 29.8488Z" fill="#BCBFC7"></path><path d="M56.522 28.4228C56.3211 28.349 56.0916 28.3136 55.8715 28.3136C55.3134 28.3136 55.0485 28.503 55.0485 28.9964C55.0485 29.4641 55.2654 29.6692 55.6863 29.6692C55.9384 29.6692 56.2318 29.6083 56.522 29.5443V28.4228ZM56.5572 29.804L56.5412 29.7077C56.2829 29.7687 55.9256 29.8489 55.6705 29.8489C55.4634 29.8489 55.2654 29.8201 55.0996 29.6822C54.9083 29.5251 54.8477 29.2719 54.8477 28.9964C54.8477 28.708 54.9434 28.4354 55.2048 28.288C55.3866 28.1823 55.6322 28.1406 55.8555 28.1406C56.0788 28.1406 56.2957 28.1792 56.522 28.2433V27.5029H56.7103V29.804H56.5572Z" fill="#BCBFC7"></path><path d="M59.4673 28.3193C59.2152 28.3193 58.9218 28.3803 58.6316 28.4475V29.5627C58.8358 29.6396 59.0622 29.6751 59.2823 29.6751C59.8403 29.6751 60.1049 29.4859 60.1049 28.992C60.1049 28.5276 59.8882 28.3193 59.4673 28.3193ZM59.9488 29.7036C59.767 29.8063 59.5215 29.8479 59.3014 29.8479C59.0622 29.8479 58.823 29.8063 58.5807 29.7261L58.5711 29.8032H58.4434V27.502H58.6316V28.2742C58.89 28.2168 59.2375 28.1398 59.4831 28.1398C59.6906 28.1398 59.8882 28.1715 60.0539 28.3063C60.2454 28.4636 60.306 28.7165 60.306 28.992C60.306 29.281 60.2101 29.5532 59.9488 29.7036Z" fill="#BCBFC7"></path><path d="M60.5557 30.4249V30.2488C60.6481 30.2582 60.7345 30.2649 60.795 30.2649C61.0279 30.2649 61.168 30.1974 61.2988 29.9313L61.3595 29.8032L60.5176 28.1846H60.7345L61.4553 29.5819H61.4679L62.1536 28.1846H62.3673L61.4616 30.002C61.2957 30.3321 61.1171 30.4409 60.7886 30.4409C60.7152 30.4409 60.6356 30.4346 60.5557 30.4249Z" fill="#BCBFC7"></path><path d="M64.9626 28.8807H64.3377V29.4482H64.9657C65.3963 29.4482 65.559 29.3999 65.559 29.1629C65.559 28.9094 65.3359 28.8807 64.9626 28.8807ZM64.848 27.9609H64.3377V28.5376H64.851C65.2752 28.5376 65.4441 28.4866 65.4441 28.2461C65.4441 27.9899 65.2306 27.9609 64.848 27.9609ZM65.8174 29.6501C65.5876 29.7975 65.3101 29.8038 64.8032 29.8038H63.8496V27.6084H64.7809C65.2178 27.6084 65.4856 27.6147 65.7089 27.7495C65.8685 27.8457 65.9321 27.993 65.9321 28.1853C65.9321 28.4158 65.8366 28.5699 65.5876 28.6725V28.6851C65.8684 28.7496 66.0502 28.8937 66.0502 29.2045C66.0502 29.416 65.9736 29.5538 65.8174 29.6501Z" fill="#BCBFC7"></path><path d="M67.9557 29.1247C67.7673 29.1084 67.5761 29.0991 67.3752 29.0991C67.0468 29.0991 66.9317 29.1663 66.9317 29.3168C66.9317 29.4578 67.0276 29.5349 67.2794 29.5349C67.4899 29.5349 67.7418 29.4869 67.9557 29.4385V29.1247ZM68.0513 29.804L68.0385 29.7078C67.7641 29.7754 67.4454 29.8489 67.1646 29.8489C66.9922 29.8489 66.8075 29.8264 66.6765 29.7302C66.5556 29.6438 66.498 29.5027 66.498 29.3393C66.498 29.1564 66.5779 28.9867 66.7691 28.9003C66.9381 28.8201 67.1646 28.8138 67.372 28.8138C67.5409 28.8138 67.7673 28.8232 67.9557 28.8362V28.8072C67.9557 28.5541 67.7897 28.4708 67.3368 28.4708C67.1614 28.4708 66.9477 28.4801 66.7436 28.4994V28.1725C66.97 28.1537 67.2253 28.1406 67.4358 28.1406C67.7162 28.1406 68.0067 28.1631 68.1852 28.2912C68.37 28.4228 68.4053 28.6055 68.4053 28.8456V29.804L68.0513 29.804Z" fill="#BCBFC7"></path><path d="M70.5088 29.804V28.9096C70.5088 28.615 70.3591 28.5092 70.091 28.5092C69.8934 28.5092 69.6447 28.5604 69.434 28.6118V29.804H68.9844V28.1854H69.3511L69.3671 28.288C69.6508 28.2144 69.9667 28.1406 70.2283 28.1406C70.4259 28.1406 70.6269 28.1693 70.7799 28.3073C70.9074 28.4228 70.9553 28.5827 70.9553 28.8137V29.804H70.5088Z" fill="#BCBFC7"></path><path d="M72.2239 29.8488C72.0166 29.8488 71.79 29.8201 71.6243 29.679C71.4266 29.5187 71.3691 29.2656 71.3691 28.9928C71.3691 28.7367 71.4521 28.4577 71.6976 28.3009C71.8987 28.1693 72.1473 28.1406 72.4056 28.1406C72.5907 28.1406 72.7725 28.1535 72.9733 28.1724V28.5186C72.8105 28.5029 72.616 28.4899 72.4599 28.4899C72.0324 28.4899 71.8316 28.6247 71.8316 28.9964C71.8316 29.3458 71.9814 29.4963 72.3322 29.4963C72.5363 29.4963 72.7757 29.4578 73.0085 29.4129V29.7461C72.7564 29.7977 72.4822 29.8488 72.2239 29.8488Z" fill="#BCBFC7"></path><path d="M74.3379 28.4801C73.9105 28.4801 73.7222 28.6149 73.7222 28.9834C73.7222 29.3521 73.9073 29.5093 74.3379 29.5093C74.7619 29.5093 74.9468 29.3776 74.9468 29.009C74.9468 28.6405 74.7653 28.4801 74.3379 28.4801ZM75.1096 29.679C74.9119 29.8134 74.6535 29.8488 74.3379 29.8488C74.0157 29.8488 73.7574 29.8103 73.5629 29.679C73.3396 29.5316 73.2598 29.2881 73.2598 28.9964C73.2598 28.7045 73.3396 28.4577 73.5629 28.3104C73.7574 28.1791 74.0157 28.1406 74.3379 28.1406C74.6569 28.1406 74.9119 28.1791 75.1096 28.3104C75.3329 28.4577 75.4094 28.7045 75.4094 28.9929C75.4094 29.2849 75.3297 29.5316 75.1096 29.679Z" fill="#BCBFC7"></path><path d="M78.0065 29.8485C77.7356 29.8485 77.4422 29.8038 77.222 29.621C76.9606 29.4029 76.8809 29.0665 76.8809 28.7041C76.8809 28.3807 76.9828 27.9961 77.3241 27.7718C77.5887 27.5988 77.9172 27.5635 78.2489 27.5635C78.4915 27.5635 78.7401 27.5795 79.0113 27.6019V27.9961C78.7784 27.9768 78.4915 27.9607 78.2682 27.9607C77.6462 27.9607 77.3816 28.1981 77.3816 28.7041C77.3816 29.2206 77.627 29.4513 78.0864 29.4513C78.3861 29.4513 78.7209 29.3903 79.059 29.3196V29.7105C78.7209 29.7782 78.3669 29.8485 78.0065 29.8485Z" fill="#BCBFC7"></path><path d="M80.381 28.4291C80.0077 28.4291 79.8642 28.5638 79.8355 28.8106H80.92C80.9071 28.5478 80.754 28.4291 80.381 28.4291ZM80.3138 29.8489C80.0492 29.8489 79.81 29.817 79.6314 29.6692C79.4401 29.5093 79.373 29.2688 79.373 28.9929C79.373 28.7462 79.4529 28.4707 79.6762 28.3104C79.8738 28.1694 80.1259 28.1406 80.381 28.1406C80.6106 28.1406 80.8817 28.1662 81.0793 28.3041C81.3378 28.4868 81.36 28.769 81.3631 29.1021H79.8324C79.8419 29.349 79.9727 29.5093 80.4255 29.5093C80.7061 29.5093 81.0186 29.4676 81.2835 29.4259V29.7432C80.9741 29.7946 80.636 29.8489 80.3138 29.8489Z" fill="#BCBFC7"></path><path d="M83.3623 29.804V28.9096C83.3623 28.615 83.2126 28.5092 82.9445 28.5092C82.7468 28.5092 82.4982 28.5604 82.2876 28.6118V29.804H81.8379V28.1854H82.2046L82.2206 28.288C82.5043 28.2144 82.8202 28.1406 83.0818 28.1406C83.2794 28.1406 83.4804 28.1693 83.6334 28.3073C83.7609 28.4228 83.8089 28.5827 83.8089 28.8137V29.804H83.3623Z" fill="#BCBFC7"></path><path d="M85.0894 29.8482C84.8727 29.8482 84.6748 29.7872 84.5664 29.6175C84.4867 29.502 84.4483 29.3453 84.4483 29.1272V28.5212H84.123V28.1848H84.4483L84.4963 27.6943H84.8949V28.1848H85.5295V28.5212H84.8949V29.0406C84.8949 29.1656 84.9044 29.2713 84.9395 29.3484C84.9873 29.4573 85.0925 29.4988 85.2329 29.4988C85.338 29.4988 85.4658 29.4827 85.555 29.4671V29.7905C85.4083 29.8195 85.2391 29.8482 85.0894 29.8482Z" fill="#BCBFC7"></path><path d="M85.9668 29.804V28.1854H86.3337L86.3496 28.288C86.6463 28.2047 86.8662 28.1406 87.147 28.1406C87.1596 28.1406 87.1788 28.1406 87.2042 28.1437V28.5284C87.1531 28.5254 87.0926 28.5254 87.0479 28.5254C86.8278 28.5254 86.6621 28.5508 86.4164 28.6087V29.804L85.9668 29.804Z" fill="#BCBFC7"></path><path d="M88.8385 29.1247C88.6502 29.1084 88.4589 29.0991 88.258 29.0991C87.9296 29.0991 87.8145 29.1663 87.8145 29.3168C87.8145 29.4578 87.9104 29.5349 88.1622 29.5349C88.3728 29.5349 88.6246 29.4869 88.8385 29.4385V29.1247ZM88.9341 29.804L88.9214 29.7078C88.647 29.7754 88.3282 29.8489 88.0474 29.8489C87.8752 29.8489 87.6903 29.8264 87.5594 29.7302C87.4384 29.6438 87.3809 29.5027 87.3809 29.3393C87.3809 29.1564 87.4607 28.9867 87.652 28.9003C87.8211 28.8201 88.0474 28.8138 88.2548 28.8138C88.4239 28.8138 88.6503 28.8232 88.8385 28.8362V28.8072C88.8385 28.5541 88.6725 28.4708 88.2196 28.4708C88.0443 28.4708 87.8305 28.4801 87.6264 28.4994V28.1725C87.8528 28.1537 88.1081 28.1406 88.3187 28.1406C88.5992 28.1406 88.8895 28.1631 89.068 28.2912C89.2529 28.4228 89.2881 28.6055 89.2881 28.8456V29.804L88.9341 29.804Z" fill="#BCBFC7"></path><path d="M89.8691 27.5029H90.3188V29.804H89.8691V27.5029Z" fill="#BCBFC7"></path></g><defs><clipPath id="clip0_21543_2877"><rect width="89.8486" height="32" fill="white" transform="translate(0.751953)"></rect></clipPath></defs></svg>
