<svg width="20" height="18" viewBox="0 0 20 18" fill="none" xmlns="http://www.w3.org/2000/svg"><path d="M10 2C9.0111 2 8.0444 2.29324 7.22215 2.84265C6.39991 3.39206 5.75904 4.17295 5.3806 5.08658C5.00217 6.00021 4.90315 7.00555 5.09608 7.97545C5.289 8.94536 5.76521 9.83627 6.46447 10.5355C7.16373 11.2348 8.05465 11.711 9.02455 11.9039C9.99446 12.0969 10.9998 11.9978 11.9134 11.6194C12.827 11.241 13.6079 10.6001 14.1573 9.77785C14.7068 8.95561 15 7.98891 15 7C15 5.67392 14.4732 4.40215 13.5355 3.46447C12.5979 2.52678 11.3261 2 10 2V2ZM8.09 4.91C7.57 5.43 6.92 5.63 6.64 5.36C6.36 5.09 6.57 4.43 7.09 3.91C7.61 3.39 8.27 3.18 8.55 3.45C8.83 3.72 8.62 4.38 8.09 4.91Z" fill="#8C9099"></path><path d="M10 18C11.3807 18 12.5 16.8807 12.5 15.5C12.5 14.1193 11.3807 13 10 13C8.61929 13 7.5 14.1193 7.5 15.5C7.5 16.8807 8.61929 18 10 18Z" fill="#414952"></path><path d="M17.5 5C18.8807 5 20 3.88071 20 2.5C20 1.11929 18.8807 0 17.5 0C16.1193 0 15 1.11929 15 2.5C15 3.88071 16.1193 5 17.5 5Z" fill="#414952"></path><path d="M17.5 4C18.3284 4 19 3.32843 19 2.5C19 1.67157 18.3284 1 17.5 1C16.6716 1 16 1.67157 16 2.5C16 3.32843 16.6716 4 17.5 4Z" fill="#8C9099"></path><path d="M2.5 5C3.88071 5 5 3.88071 5 2.5C5 1.11929 3.88071 0 2.5 0C1.11929 0 0 1.11929 0 2.5C0 3.88071 1.11929 5 2.5 5Z" fill="#414952"></path><path d="M13 3C13.7221 3.96286 14.0727 5.1539 13.9874 6.35444C13.9021 7.55499 13.3866 8.68448 12.5355 9.53553C11.6845 10.3866 10.555 10.9021 9.35445 10.9874C8.1539 11.0727 6.96286 10.7221 6 10C6.42982 10.5731 6.97776 11.0471 7.60673 11.39C8.23569 11.7329 8.931 11.9366 9.64555 11.9874C10.3601 12.0382 11.0772 11.9348 11.7484 11.6844C12.4195 11.4339 13.029 11.0421 13.5355 10.5355C14.0421 10.029 14.4339 9.41952 14.6844 8.74838C14.9348 8.07724 15.0382 7.36011 14.9874 6.64556C14.9366 5.931 14.7329 5.23569 14.39 4.60673C14.0471 3.97776 13.5731 3.42982 13 3V3Z" fill="#414952"></path><path d="M2.5 4C3.32843 4 4 3.32843 4 2.5C4 1.67157 3.32843 1 2.5 1C1.67157 1 1 1.67157 1 2.5C1 3.32843 1.67157 4 2.5 4Z" fill="#8C9099"></path><path d="M10 17C10.8284 17 11.5 16.3284 11.5 15.5C11.5 14.6716 10.8284 14 10 14C9.17157 14 8.5 14.6716 8.5 15.5C8.5 16.3284 9.17157 17 10 17Z" fill="#8C9099"></path></svg>
