<svg width="20" height="19" viewBox="0 0 20 19" fill="none" xmlns="http://www.w3.org/2000/svg"><g clip-path="url(#clip0)"><path fill-rule="evenodd" clip-rule="evenodd" d="M10 15.69L0 11.97V14.45L10 18.17L20 14.45V11.97L10 15.69Z" fill="#414952"></path><path fill-rule="evenodd" clip-rule="evenodd" d="M10.82 6.28003V9.93003H9.18005V6.28003L0.180046 9.69003C0.129444 9.708 0.0856492 9.74121 0.0546784 9.78508C0.0237076 9.82895 0.00708008 9.88133 0.00708008 9.93503C0.00708008 9.98873 0.0237076 10.0411 0.0546784 10.085C0.0856492 10.1288 0.129444 10.1621 0.180046 10.18L9.83005 13.77C9.94665 13.8104 10.0734 13.8104 10.19 13.77L19.84 10.18C19.8906 10.1621 19.9344 10.1288 19.9654 10.085C19.9964 10.0411 20.013 9.98873 20.013 9.93503C20.013 9.88133 19.9964 9.82895 19.9654 9.78508C19.9344 9.74121 19.8906 9.708 19.84 9.69003L10.82 6.28003Z" fill="#8C9099"></path><path d="M10 4.58C11.2648 4.58 12.29 3.55473 12.29 2.29C12.29 1.02527 11.2648 0 10 0C8.73529 0 7.71002 1.02527 7.71002 2.29C7.71002 3.55473 8.73529 4.58 10 4.58Z" fill="#414952"></path></g><defs><clipPath id="clip0"><rect width="20" height="18.17" fill="white"></rect></clipPath></defs></svg>
