<svg id="Layer_2" data-name="Layer 2" xmlns="http://www.w3.org/2000/svg" width="20" height="20" viewBox="0 0 20 20"><g id="Layer_2-2" data-name="Layer 2"><g><path d="M31.99,12.13V30.76c0,.668-.542,1.21-1.21,1.21h-12.38c-.668,0-1.21-.542-1.21-1.21v-.3h6.721c1.094,0,1.989-.895,1.989-1.989V10.92h4.88c.668,0,1.21,.542,1.21,1.21Z" fill="#404952"></path><path d="M14.8,30.46v.31c0,.67-.54,1.21-1.22,1.21H1.21c-.668,0-1.21-.542-1.21-1.21V12.14c0-.668,.542-1.21,1.21-1.21H6.1V28.466c0,1.101,.893,1.994,1.994,1.994h6.706Z" fill="#404952"></path><path d="M9.587,7.991h12.765c.719,0,1.303,.584,1.303,1.303V27.144c0,.719-.584,1.302-1.302,1.302H9.587c-.719,0-1.303-.584-1.303-1.303V9.294c0-.719,.584-1.303,1.303-1.303Z" fill="#8c9099"></path><path d="M19.54,3.57c0,.09,0,.17-.01,.26,0,.01,0,.02-.01,.03-.08,1.11-.68,2.08-1.56,2.67l-.2,.34-1.79,3.04-1.78-3.04-.19-.33c-.89-.59-1.5-1.56-1.58-2.68-.01-.01-.01-.02-.01-.03-.01-.09-.01-.17-.01-.26,0-1.97,1.6-3.57,3.57-3.57s3.57,1.6,3.57,3.57Z" fill="#404952"></path><path d="M12.42,3.86l-.02-.03h.01c0,.01,0,.02,.01,.03Z" fill="#8c9099"></path><path d="M19.54,3.83l-.02,.03c.01-.01,.01-.02,.01-.03h.01Z" fill="#8c9099"></path><circle cx="15.97" cy="3.012" r="1.387" fill="#8c9099"></circle></g></g></svg>

