<svg width="20" height="19" viewBox="0 0 20 19" fill="none" xmlns="http://www.w3.org/2000/svg"><g clip-path="url(#clip0)"><path d="M19.9999 0.499977C19.9708 0.361296 19.8957 0.236509 19.7868 0.145782C19.6779 0.0550541 19.5416 0.00368564 19.3999 -2.31452e-05C13.6099 -0.320023 9.12995 1.56998 6.50995 5.30998C6.1892 5.17425 5.85354 5.07691 5.50995 5.01998C4.8823 4.92689 4.24241 4.95944 3.62744 5.11572C3.01247 5.27201 2.43468 5.54892 1.92763 5.93037C1.42058 6.31182 0.994362 6.79022 0.673742 7.33777C0.353122 7.88532 0.144485 8.49112 0.0599479 9.11998C-0.0427691 9.74656 -0.0206725 10.3873 0.124968 11.0053C0.270609 11.6233 0.536924 12.2065 0.908614 12.7213C1.2803 13.2361 1.75004 13.6723 2.29085 14.005C2.83165 14.3377 3.43287 14.5603 4.05995 14.66C4.75316 14.764 5.46096 14.7093 6.12995 14.5C6.10857 14.0454 6.13202 13.5899 6.19995 13.14C6.34078 12.1773 6.69144 11.2573 7.22713 10.4451C7.76282 9.63296 8.47045 8.94843 9.29995 8.43998C9.00199 7.47688 8.41987 6.62635 7.62995 5.99998C9.75995 3.06998 13.1899 1.42998 17.6299 1.32998C15.1621 3.45539 13.334 6.22526 12.3499 9.32998C11.1663 9.42377 10.057 9.94413 9.22827 10.7943C8.39949 11.6445 7.9076 12.7667 7.84404 13.9524C7.78048 15.138 8.14957 16.3063 8.88271 17.2403C9.61585 18.1742 10.6631 18.8102 11.8299 19.03C13.107 19.266 14.4254 18.9851 15.4953 18.249C16.5652 17.5129 17.2989 16.382 17.5349 15.105C17.771 13.828 17.4901 12.5095 16.754 11.4396C16.0179 10.3697 14.887 9.63602 13.6099 9.39998C14.7492 6.09481 16.8923 3.228 19.7399 1.19998C19.8523 1.12626 19.9381 1.01858 19.9848 0.892649C20.0316 0.766717 20.0369 0.629131 19.9999 0.499977ZM3.17995 7.49998C2.48995 8.01998 1.71995 8.14998 1.45995 7.79998C1.19995 7.44998 1.55995 6.79998 2.25995 6.23998C2.95995 5.67998 3.71995 5.58998 3.96995 5.93998C4.21995 6.28998 3.83995 6.99998 3.14995 7.47998L3.17995 7.49998ZM11.1099 11.89C10.4199 12.4 9.64995 12.53 9.39995 12.18C9.14995 11.83 9.49995 11.13 10.1899 10.62C10.8799 10.11 11.6499 9.97998 11.9099 10.33C12.1699 10.68 11.7799 11.35 11.0799 11.87L11.1099 11.89Z" fill="#8C9099"></path><path d="M15.1299 10.3699C15.693 11.1313 15.9978 12.0529 15.9999 12.9999C16.0013 13.5912 15.8858 14.1769 15.6601 14.7235C15.4344 15.2701 15.103 15.7667 14.6849 16.1848C14.2667 16.6029 13.7701 16.9343 13.2236 17.16C12.677 17.3857 12.0913 17.5012 11.4999 17.4999C10.5529 17.4978 9.63138 17.1929 8.86993 16.6299C9.24794 17.1627 9.73768 17.6067 10.305 17.9307C10.8723 18.2548 11.5034 18.4511 12.1545 18.5061C12.8055 18.561 13.4606 18.4732 14.0742 18.2489C14.6878 18.0245 15.245 17.6689 15.707 17.2069C16.1689 16.7449 16.5245 16.1877 16.7489 15.5741C16.9733 14.9606 17.0611 14.3054 17.0061 13.6544C16.9512 13.0034 16.7549 12.3722 16.4308 11.8049C16.1067 11.2376 15.6628 10.7479 15.1299 10.3699Z" fill="#414952"></path><path d="M17.5899 1.28998C15.1221 3.41539 13.294 6.18526 12.3099 9.28998C12.7484 9.27272 13.1869 9.32332 13.6099 9.43998C14.7492 6.13481 16.8923 3.268 19.7399 1.23998C19.8606 1.16419 19.9519 1.04977 19.9992 0.915373C20.0464 0.78098 20.0467 0.63455 19.9999 0.499977C19.9708 0.361296 19.8957 0.236509 19.7868 0.145782C19.6779 0.0550541 19.5416 0.00368564 19.3999 -2.31452e-05C13.6099 -0.320023 9.12995 1.56998 6.50995 5.30998C6.92419 5.46579 7.30448 5.70007 7.62995 5.99998C9.75995 2.99998 13.1899 1.38998 17.5899 1.28998Z" fill="#414952"></path></g><defs><clipPath id="clip0"><rect width="20" height="19" fill="white"></rect></clipPath></defs></svg>
