<?xml version="1.0" encoding="iso-8859-1"?>

<!DOCTYPE svg PUBLIC "-//W3C//DTD SVG 1.1//EN" "http://www.w3.org/Graphics/SVG/1.1/DTD/svg11.dtd">
<!-- Uploaded to: SVG Repo, www.svgrepo.com, Generator: SVG Repo Mixer Tools -->
<svg height="800px" width="800px" version="1.1" id="_x34_" xmlns="http://www.w3.org/2000/svg" xmlns:xlink="http://www.w3.org/1999/xlink"
	 viewBox="0 0 512 512"  xml:space="preserve">
<g>
	<g>
		<path style="fill:#FFFFFF;" d="M510.755,256.06c0,40.616-9.472,79.066-26.409,113.18c-0.08,0.16-0.16,0.401-0.321,0.562
			c-6.261,12.602-13.646,24.723-21.833,36.121c-0.08,0-0.08,0.08-0.161,0.16c-0.321,0.401-0.642,0.883-0.963,1.365
			c-0.08,0.08-0.08,0.08-0.161,0.16c-3.211,4.415-6.663,8.75-10.194,12.923c-0.08,0.08-0.161,0.241-0.241,0.321
			c-0.321,0.401-0.642,0.722-1.044,1.204c-0.08,0.08-0.161,0.161-0.241,0.241c-9.552,11.158-20.067,21.512-31.466,30.823
			c-2.569,2.087-5.217,4.174-7.866,6.181c-1.525,1.204-2.97,2.328-4.495,3.371c-2.167,1.686-4.415,3.291-6.743,4.816
			c-2.889,2.007-5.859,3.933-8.829,5.779c-2.89,1.766-5.78,3.452-8.669,5.137h-0.08c-36.843,20.87-79.386,32.83-124.658,32.991
			h-1.926c-46.797-0.16-90.625-12.923-128.271-35.078h-0.08c-2.248-1.364-4.495-2.729-6.743-4.174
			c-16.215-10.194-31.145-22.155-44.63-35.64c-4.495-4.495-8.829-9.231-12.923-14.047c-0.161-0.08-0.241-0.241-0.321-0.321
			c-0.401-0.401-0.722-0.802-1.044-1.204c-0.08-0.08-0.16-0.161-0.24-0.241c-3.612-4.254-7.064-8.589-10.355-13.084
			c-0.402-0.562-0.723-1.043-1.124-1.605c-3.291-4.495-6.422-9.07-9.312-13.806c-4.495-6.983-8.589-14.208-12.361-21.673
			c-0.08-0.161-0.161-0.321-0.241-0.482c-4.977-10.034-9.311-20.388-13.004-31.064C4.896,312.971,0,285.037,0,256.06
			c0-9.712,0.562-19.264,1.605-28.656c2.89-25.927,9.632-50.65,19.746-73.607v-0.161l0.723-1.605c0.08-0.08,0.08-0.08,0.08-0.161
			c12.121-27.211,28.977-51.774,49.286-72.965c0.241-0.241,0.482-0.561,0.722-0.803c26.248-26.97,58.356-48.162,94.317-61.567
			c0.161-0.08,0.401-0.161,0.562-0.241c27.292-9.953,56.751-15.492,87.414-15.653h1.926c28.737,0.161,56.349,4.977,82.035,13.807
			c1.766,0.642,3.532,1.204,5.298,1.926c0.16,0,0.401,0.08,0.562,0.161c26.729,9.953,51.292,24.161,72.884,41.981
			c8.83,7.144,17.097,14.93,24.884,23.278c0.08,0.08,0.16,0.241,0.241,0.321c1.846,1.926,3.612,3.933,5.378,5.94
			c1.685,1.926,3.452,4.013,5.137,6.101c0,0,0.08,0,0.08,0.08c3.211,3.853,6.342,7.866,9.312,11.96
			c1.525,2.087,3.05,4.254,4.575,6.502c1.364,1.926,2.648,4.013,3.933,6.02c0.401,0.482,0.642,0.963,0.963,1.445
			c1.204,1.926,2.328,3.853,3.532,5.78c1.445,2.408,2.809,4.816,4.174,7.304c3.291,6.101,6.422,12.361,9.312,18.783
			c0.08,0.08,0.161,0.16,0.161,0.241c0.241,0.482,0.482,1.044,0.642,1.525c1.124,2.488,2.168,5.057,3.211,7.626
			c0.08,0.08,0.08,0.161,0.161,0.321c0.963,2.488,1.846,4.977,2.809,7.545c0.241,0.562,0.401,1.204,0.642,1.847
			c6.1,17.258,10.355,35.479,12.602,54.262c0,0.08,0,0.08,0,0.161C510.113,235.511,510.755,245.705,510.755,256.06z"/>
		<path style="fill:#cccccc;" d="M256.355,1.114v323.221c-0.316,0.006-0.643,0.006-0.959,0.006c-0.316,0-0.643,0-0.959-0.006V1.114
			H256.355z"/>
		<path style="fill:#A4A4A3;" d="M316.895,322.46l-0.604,1.871l-42.313-24.433l-1.919-1.103l-15.703-9.065l-0.796-0.46l-1.122-0.652
			l-0.796-0.461l-87.255-50.371l-83.591-48.261L21.391,154.07l0.71-1.573c0.029-0.067,0.058-0.125,0.086-0.192l62.727,36.213
			l81.864,47.263l87.658,50.611l1.132,0.652l0.787,0.46l1.132,0.652l16.5,9.526l1.918,1.113L316.895,322.46z"/>
		<path style="fill:#A4A4A3;" d="M336.713,261.47l-0.892,2.724l-59.916,34.601l-1.928,1.103l-16.49,9.526l-1.132,0.652l-0.787,0.451
			l-1.132,0.652l-52.626,30.39l-85.5,49.364L61.45,422.608c-0.422-0.499-0.844-0.988-1.266-1.487l55.887-32.26l83.697-48.328
			l53.882-31.109l0.787-0.451l1.132-0.652l0.787-0.461l15.703-9.065l1.928-1.113L336.713,261.47z"/>
		<path style="fill:#A4A4A3;" d="M450.713,420.987c-0.413,0.499-0.835,0.998-1.257,1.487l-58.122-33.555l-82.008-47.35
			l-52.971-30.582l-0.787-0.46l-1.132-0.652l-0.787-0.451l-16.499-9.526l-1.919-1.113l-60.348-34.841l-0.883-2.724l63.149,36.462
			l1.919,1.113l15.368,8.864l1.132,0.662l0.787,0.451l1.132,0.652l53.595,30.946l82.622,47.705L450.713,420.987z"/>
		<path style="fill:#A4A4A3;" d="M489.468,154.223l-59.513,34.361l-85.625,49.431l-86.843,50.141l-1.132,0.652l-0.796,0.46
			l-1.122,0.652l-15.368,8.873l-1.919,1.103l-42.592,24.596l-0.614-1.871l41.287-23.838l1.919-1.103l16.49-9.526l0.796-0.46
			l1.132-0.652l0.787-0.451l87.812-50.697l84.569-48.827l59.945-34.611C488.95,153.043,489.209,153.638,489.468,154.223z"/>
		<polygon style="fill:#FDFEFE;" points="197.316,345.406 161.425,234.928 255.396,166.652 349.37,234.929 313.477,345.406 		"/>
		<path style="fill:#757575;" d="M344.276,15.893l-0.241,0.241l-0.321,0.24l-26.409,19.184l-60.924,44.229l-0.963,0.722
			l-0.963-0.722l-87.414-63.493l-0.562-0.401C193.931,5.779,223.55,0.16,254.455,0h1.926c28.897,0.16,56.59,5.057,82.437,13.967
			C340.664,14.609,342.51,15.251,344.276,15.893z"/>
		<path style="fill:#757575;" d="M509.121,225.662l-78.987-37.258l-1.333-0.633l0.115-0.883l13.344-104.81
			c19.176,20.529,34.994,44.213,46.601,70.2c0.269,0.585,0.528,1.18,0.787,1.765c2.226,5.074,4.278,10.245,6.168,15.492
			c0.23,0.604,0.451,1.218,0.662,1.832C502.588,188.682,506.876,206.861,509.121,225.662z"/>
		<path style="fill:#757575;" d="M85.25,187.951l-1.209,0.566l-2.12,1.007L0.748,227.818c2.887-25.881,9.65-50.602,19.694-73.567
			l0.077-0.182l0.71-1.573c0.029-0.067,0.058-0.125,0.086-0.192c12.288-27.493,29.306-52.405,50.007-73.72L85.25,187.951z"/>
		<path style="fill:#757575;" d="M126.183,476.801c-1.926-1.123-3.853-2.328-5.699-3.532
			c-16.696-10.355-32.188-22.636-45.995-36.522c-4.495-4.495-8.829-9.231-13.004-14.128c-0.482-0.482-0.883-0.963-1.284-1.525
			c-3.612-4.174-7.064-8.589-10.355-13.084c-0.402-0.482-0.723-1.044-1.124-1.525c-3.612-4.896-6.983-9.953-10.114-15.09
			c-4.255-6.743-8.188-13.726-11.8-20.951l0.241,0.08l0.321,0.08l88.698,17.9v0.321l0.241,2.087l0.401,3.612l9.392,81.795
			L126.183,476.801z"/>
		<path style="fill:#757575;" d="M484.345,369.695c-6.37,12.864-13.794,25.123-22.159,36.644c-0.038,0.058-0.086,0.115-0.125,0.173
			c-0.336,0.46-0.681,0.93-1.017,1.391c-0.048,0.057-0.086,0.105-0.125,0.163c-3.261,4.422-6.667,8.729-10.207,12.921
			c-0.413,0.499-0.835,0.998-1.257,1.487c-19.291,22.533-42.448,41.671-68.444,56.386l10.322-89.941l0.038-0.374l2.331-0.47
			l86.363-17.507l1.919-0.393L484.345,369.695z"/>
		<polygon style="fill:#757575;" points="344.858,236.394 316.895,322.46 316.29,324.331 310.688,341.569 200.104,341.569
			166.385,237.785 165.934,236.394 166.778,235.78 255.396,171.394 		"/>
	</g>
	<path style="opacity:0.1;fill:#171716;" d="M495.45,171.698c-0.211-0.614-0.432-1.228-0.662-1.832
		c-1.89-5.247-3.942-10.418-6.168-15.492c-0.259-0.585-0.518-1.18-0.787-1.765c-11.607-25.987-27.425-49.671-46.601-70.2
		c-2.005-2.148-4.057-4.249-6.134-6.327L73.985,437.195c15.307,15.309,32.541,28.692,51.32,39.734
		c37.651,22.14,81.481,34.889,128.284,35.061c0.317,0.01,0.643,0.01,0.959,0.01c0.317,0,0.643,0,0.959-0.01
		c45.306-0.163,87.821-12.125,124.657-32.98c25.996-14.715,49.153-33.853,68.444-56.386c0.422-0.489,0.844-0.988,1.257-1.487
		c3.54-4.192,6.945-8.499,10.207-12.921c0.038-0.058,0.077-0.106,0.125-0.163c0.336-0.46,0.681-0.931,1.017-1.391
		c0.038-0.057,0.086-0.115,0.125-0.173c8.365-11.521,15.79-23.78,22.159-36.644c16.912-34.121,26.418-72.55,26.418-113.213
		c0-10.37-0.623-20.596-1.822-30.639C505.848,207.191,501.56,189.013,495.45,171.698z"/>
</g>
</svg>
