<svg id="Layer_2" xmlns="http://www.w3.org/2000/svg" viewBox="0 0 32 32"><defs><style>.cls-1{fill:#8c9099;}.cls-2{fill:#404952;}</style></defs><g id="Layer_1-2"><g><path class="cls-2" d="m32,6.45V0h-7.98v4.81h-3.02V0h-9.85v4.81h-3.03V0H0v6.45h4.85v19.12H1.54v3.16H0v3.27h32v-3.27h-1.54v-3.16h-3.31V6.45h4.85Zm-19.11,15.93h-3.27v-3.27h3.27v3.27Zm0-4.77h-3.27v-3.29h3.27v3.29Zm0-4.78h-3.27v-3.27h3.27v3.27Zm4.69,9.55h-3.29v-3.27h3.29v3.27Zm0-4.77h-3.29v-3.29h3.29v3.29Zm0-4.78h-3.29v-3.27h3.29v3.27Zm4.79,9.55h-3.29v-3.27h3.29v3.27Zm0-4.77h-3.29v-3.29h3.29v3.29Zm0-4.78h-3.29v-3.27h3.29v3.27Z"></path><polygon class="cls-1" points="8 7.88 8 23.94 22.37 23.94 22.37 25.47 17.57 25.47 17.57 28.54 22.37 28.54 22.37 31.99 0 31.99 0 28.73 1.54 28.73 1.54 25.57 4.85 25.57 4.85 6.45 0 6.45 0 0 8.12 0 8.12 4.81 11.15 4.81 11.15 0 21 0 21 4.81 22.37 4.81 22.37 7.88 8 7.88"></polygon></g></g></svg>
