<svg width="16" height="16" viewBox="0 0 16 16" fill="none" xmlns="http://www.w3.org/2000/svg"><g clip-path="url(#clip0_21543_2641)"><path d="M7 14C7 12.469 7.578 11.076 8.522 10.016C8.348 10.011 8.18 10 8 10C4.808 10 2.461 10.795 1.163 11.382C0.45 11.705 0 12.417 0 13.2V16H7.349C7.127 15.374 7 14.702 7 14Z" fill="#8C9099"></path><path d="M8 8C10.2091 8 12 6.20914 12 4C12 1.79086 10.2091 0 8 0C5.79086 0 4 1.79086 4 4C4 6.20914 5.79086 8 8 8Z" fill="#8C9099"></path><path d="M11 16C10.744 16 10.488 15.902 10.293 15.707L8.29297 13.707L9.70697 12.293L11 13.586L14.293 10.293L15.707 11.707L11.707 15.707C11.512 15.902 11.256 16 11 16Z" fill="#8C9099"></path></g><defs><clipPath id="clip0_21543_2641"><rect width="16" height="16" fill="white"></rect></clipPath></defs></svg>
