<?xml version="1.0" encoding="UTF-8"?>
<svg width="270px" height="133px" viewBox="0 0 270 133" version="1.1" xmlns="http://www.w3.org/2000/svg" xmlns:xlink="http://www.w3.org/1999/xlink">
    <!-- Generator: Sketch 52.5 (67469) - http://www.bohemiancoding.com/sketch -->
    <title>Asset 37</title>
    <desc>Created with Sketch.</desc>
    <defs>
        <linearGradient x1="33.5830748%" y1="-84.3986616%" x2="66.1634448%" y2="124.117117%" id="linearGradient-1">
            <stop stop-color="#486075" offset="0%"></stop>
            <stop stop-color="#15202D" stop-opacity="0" offset="100%"></stop>
        </linearGradient>
        <linearGradient x1="110.298923%" y1="85.5966674%" x2="-1.61563597%" y2="0.430562508%" id="linearGradient-2">
            <stop stop-color="#486075" offset="0%"></stop>
            <stop stop-color="#15202D" stop-opacity="0" offset="100%"></stop>
        </linearGradient>
        <linearGradient x1="10.5999379%" y1="3.72175424%" x2="89.2672926%" y2="156.940214%" id="linearGradient-3">
            <stop stop-color="#486075" offset="0%"></stop>
            <stop stop-color="#15202D" stop-opacity="0" offset="100%"></stop>
        </linearGradient>
        <linearGradient x1="49.9989856%" y1="16.2297242%" x2="49.9989856%" y2="-6.91989641%" id="linearGradient-4">
            <stop stop-color="#182835" offset="0%"></stop>
            <stop stop-color="#213447" stop-opacity="0" offset="100%"></stop>
        </linearGradient>
        <linearGradient x1="35.2812033%" y1="24.5298074%" x2="16.4127452%" y2="58.9575165%" id="linearGradient-5">
            <stop stop-color="#486075" offset="0%"></stop>
            <stop stop-color="#15202D" stop-opacity="0" offset="100%"></stop>
        </linearGradient>
        <linearGradient x1="50.3949127%" y1="114.918686%" x2="49.7468508%" y2="-55.3601062%" id="linearGradient-6">
            <stop stop-color="#182835" offset="0%"></stop>
            <stop stop-color="#213447" stop-opacity="0" offset="100%"></stop>
        </linearGradient>
        <linearGradient x1="40.2788417%" y1="230.773406%" x2="54.9001583%" y2="-41.1668928%" id="linearGradient-7">
            <stop stop-color="#182835" offset="0%"></stop>
            <stop stop-color="#213447" stop-opacity="0" offset="100%"></stop>
        </linearGradient>
        <linearGradient x1="50.0022105%" y1="63.1834532%" x2="50.0022105%" y2="126.92446%" id="linearGradient-8">
            <stop stop-color="#182835" offset="0%"></stop>
            <stop stop-color="#213447" stop-opacity="0" offset="100%"></stop>
        </linearGradient>
        <linearGradient x1="50.0022105%" y1="39.547007%" x2="50.0022105%" y2="121.193601%" id="linearGradient-9">
            <stop stop-color="#182835" offset="0%"></stop>
            <stop stop-color="#213447" stop-opacity="0" offset="100%"></stop>
        </linearGradient>
        <linearGradient x1="0%" y1="50%" x2="103.15596%" y2="50%" id="linearGradient-10">
            <stop stop-color="#182835" offset="0%"></stop>
            <stop stop-color="#213447" stop-opacity="0" offset="100%"></stop>
        </linearGradient>
        <linearGradient x1="36.877254%" y1="-21.8140301%" x2="59.6281405%" y2="100.97192%" id="linearGradient-11">
            <stop stop-color="#182835" offset="0%"></stop>
            <stop stop-color="#213447" stop-opacity="0" offset="100%"></stop>
        </linearGradient>
        <linearGradient x1="9.34223954%" y1="205.826558%" x2="59.3144076%" y2="10.1219512%" id="linearGradient-12">
            <stop stop-color="#182835" offset="0%"></stop>
            <stop stop-color="#213447" stop-opacity="0" offset="100%"></stop>
        </linearGradient>
    </defs>
    <g id="Page-1" stroke="none" strokeWidth="1" fill="none" fill-rule="evenodd" opacity="0.699999988">
        <g id="blaze-level-cashback-1-modal" transform="translate(-585.000000, -310.000000)">
            <g id="Asset-37" transform="translate(585.000000, 310.000000)">
                <path d="M186.012624,122.141586 C186.012624,122.141586 159.009282,144.136854 137.091832,118.647136" id="Path" stroke="url(#linearGradient-1)" strokeWidth="3" opacity="0.6"></path>
                <path d="M0.0434405941,54.3264706 C0.0434405941,54.3264706 33.7065594,52.8757545 37.4257426,78.1678005 C41.1449257,103.459847 55.2664604,105.346113 55.2664604,105.346113" id="Path" stroke="url(#linearGradient-2)" strokeWidth="3" opacity="0.6"></path>
                <path d="M61.602104,49.0261637 C61.602104,49.0261637 85.0366337,2.0269821 124.490718,35.1354731 C159.393564,64.4379284 189.564728,64.0795414 189.564728,64.0795414" id="Path" stroke="url(#linearGradient-3)" strokeWidth="3" opacity="0.6"></path>
                <rect id="Rectangle" fill="#213447" fill-rule="nonzero" x="52.0284653" y="46.2788491" width="164.710025" height="73.7385934" rx="13.78"></rect>
                <path d="M212.474629,46.2788491 L139.344059,46.2788491 C138.026557,46.2779563 136.762857,46.8027739 135.831869,47.7374708 C134.900881,48.6721676 134.379143,49.9398999 134.381807,51.2608696 L134.381797,120.020793 L212.474629,120.020793 C214.828189,120.018943 216.735149,118.105462 216.735149,115.745703 L216.735149,50.5539386 C216.735149,48.1941797 214.828189,46.2806984 212.474629,46.2788491 Z" id="Path" fill="#486075" fill-rule="nonzero"></path>
                <rect id="Rectangle" fill="url(#linearGradient-4)" fill-rule="nonzero" x="52.0284653" y="46.2788491" width="164.710025" height="73.7385934" rx="12.55"></rect>
                <path d="M193.714975,58.6518159 C193.714975,58.6518159 227.418193,63.2150384 227.89604,84.5402302 C228.477475,110.063453 242.11448,116.780972 269.695916,116.931739" id="Path" stroke="url(#linearGradient-5)" strokeWidth="3" opacity="0.6"></path>
                <rect id="Rectangle" fill="#517087" fill-rule="nonzero" x="142.842698" y="50.7884655" width="65.434901" height="43.7359079" rx="9.28"></rect>
                <ellipse id="Oval" fill="#517087" fill-rule="nonzero" cx="113.887871" cy="52.7785934" rx="13.1123762" ry="13.1469054"></ellipse>
                <path d="M105.203094,54.2929668 C105.203615,50.352098 107.462819,46.7622639 111.010315,45.0653978 C114.55781,43.3685317 118.762149,43.8666733 121.81745,46.3458568 C119.365382,43.3024955 115.396289,41.9287261 111.59389,42.8073115 C107.791492,43.6858969 104.822398,46.6628096 103.94612,50.4752213 C103.069842,54.2876331 104.440003,58.2671778 107.475371,60.7257033 C106.001981,58.9076453 105.199391,56.6355395 105.203094,54.2929668 Z" id="Path" fill="#101A24" fill-rule="nonzero"></path>
                <path d="M52.0284653,54.7184655 L52.0284653,58.2464194 L87.4492574,74.9078772 L120.530941,69.2557801 C120.530941,69.2557801 134.528837,64.6221995 134.528837,55.5694629 L52.0284653,54.7184655 Z" id="Path" fill="url(#linearGradient-6)" fill-rule="nonzero"></path>
                <ellipse id="Oval" fill="#517087" fill-rule="nonzero" cx="79.5464109" cy="25.9822251" rx="9.97462871" ry="10.0008951"></ellipse>
                <path d="M83.4059406,20.4842455 C85.5213594,22.6043656 86.2323224,25.7551713 85.2331113,28.5817978 C84.2339003,31.4084243 81.702615,33.4070526 78.7277228,33.7182609 C81.6753641,34.0262312 84.5403692,32.623088 86.1100946,30.1027263 C87.6798199,27.5823645 87.6798199,24.385436 86.1100946,21.8650742 C84.5403692,19.3447125 81.6753641,17.9415693 78.7277228,18.2495396 C80.4977477,18.4303444 82.1507607,19.2199608 83.4059406,20.4842455 Z" id="Path" fill="#101A24" fill-rule="nonzero"></path>
                <ellipse id="Oval" fill="#517087" fill-rule="nonzero" cx="189.026733" cy="21.536266" rx="11.5585396" ry="11.588977"></ellipse>
                <path d="M181.367822,22.8730691 C181.368484,19.3991315 183.359748,16.2346058 186.486645,14.7382119 C189.613542,13.241818 193.319755,13.6797846 196.013985,15.8640665 C193.85303,13.1775432 190.352044,11.9636594 186.997478,12.7378064 C183.642912,13.5119535 181.023495,16.1382678 180.251381,19.5016675 C179.479268,22.8650673 180.689963,26.3752723 183.369431,28.5419182 C182.072429,26.9390096 181.365591,24.9371413 181.367822,22.8730691 Z" id="Path" fill="#101A24" fill-rule="nonzero"></path>
                <ellipse id="Oval" fill="#213447" fill-rule="nonzero" cx="100.965965" cy="6.43608696" rx="6.41918317" ry="6.43608696"></ellipse>
                <path d="M96.7154703,7.17987212 C96.7155096,5.25133225 97.8205759,3.49434664 99.5562547,2.66320408 C101.291934,1.83206153 103.349469,2.07461193 104.845545,3.28672634 C103.648453,1.78757767 101.701441,1.10729612 99.8343558,1.53582816 C97.9672702,1.9643602 96.5093248,3.42614489 96.0819182,5.29814711 C95.6545117,7.17014932 96.3330065,9.12228814 97.8282178,10.322532 C97.1087338,9.4339734 96.7158548,8.32439093 96.7154703,7.17987212 Z" id="Path" fill="#101A24" fill-rule="nonzero"></path>
                <ellipse id="Oval" fill="#213447" fill-rule="nonzero" cx="154.715347" cy="29.6173913" rx="7.27462871" ry="7.29378517"></ellipse>
                <path d="M157.52896,25.6036317 C159.07057,27.1504167 159.588781,29.4476026 158.861126,31.5090003 C158.13347,33.5703981 156.289386,35.0293165 154.120545,35.2594373 C156.269872,35.4825322 158.358224,34.4585916 159.502327,32.6206935 C160.64643,30.7827955 160.64643,28.4519871 159.502327,26.6140891 C158.358224,24.776191 156.269872,23.7522504 154.120545,23.9753453 C155.409279,24.1102345 156.612626,24.685104 157.52896,25.6036317 Z" id="Path" fill="#101A24" fill-rule="nonzero"></path>
                <ellipse id="Oval" fill="#213447" fill-rule="nonzero" cx="127.230817" cy="17.9882097" rx="3.53873762" ry="3.54805627"></ellipse>
                <path d="M126.823144,15.6395908 C127.883588,15.6389899 128.849897,16.2497537 129.306649,17.2093114 C129.7634,18.1688691 129.629206,19.3062374 128.961757,20.1324552 C129.774175,19.4674184 130.138601,18.3969806 129.901308,17.3726896 C129.664015,16.3483986 128.866321,15.5486038 127.84472,15.3106861 C126.82312,15.0727685 125.755493,15.4381542 125.092203,16.252711 C125.582378,15.8560688 126.193246,15.639692 126.823144,15.6395908 Z" id="Path" fill="#101A24" fill-rule="nonzero"></path>
                <ellipse id="Oval" fill="#213447" fill-rule="nonzero" cx="107.542203" cy="32.0296675" rx="2.40594059" ry="2.41227621"></ellipse>
                <path d="M108.9126,32.6555181 C108.672144,33.3372928 108.062302,33.8198261 107.34505,33.8958312 C108.05614,33.9699279 108.747198,33.6313233 109.125813,33.0232927 C109.504427,32.415262 109.504427,31.644073 109.125813,31.0360424 C108.747198,30.4280118 108.05614,30.0894071 107.34505,30.1635038 C107.771377,30.2072006 108.169378,30.3978445 108.471163,30.7029156 C108.981319,31.2141 109.153056,31.9737433 108.9126,32.6555181 Z" id="Path" fill="#101A24" fill-rule="nonzero"></path>
                <polygon id="Path" fill="url(#linearGradient-7)" fill-rule="nonzero" points="142.842698 64.6657545 208.274257 67.9156266 208.274257 56.8392583 142.842698 55.5694629"></polygon>
                <path d="M52.0284653,58.2464194 L52.0284653,115.745703 C52.0284646,118.105462 53.9354246,120.018943 56.2889851,120.020793 L212.474629,120.020793 C214.828189,120.018943 216.735149,118.105462 216.735149,115.745703 L216.735149,58.2464194 L52.0284653,58.2464194 Z" id="Path" fill="#213447" fill-rule="nonzero"></path>
                <path d="M138.16448,101.39266 L213.747772,101.39266 L213.747772,117.511355 C213.747772,118.897279 212.62721,120.020793 211.244926,120.020793 L140.430074,120.020793 C139.180667,120.020793 138.167822,119.005281 138.167822,117.752583 L138.167822,101.39266 L138.16448,101.39266 Z" id="Path" fill="url(#linearGradient-8)" fill-rule="nonzero"></path>
                <path d="M138.16448,68.6359591 L213.747772,68.6359591 L213.747772,114.013555 C213.747772,115.399479 212.62721,116.522992 211.244926,116.522992 L140.430074,116.522992 C139.180667,116.522992 138.167822,115.50748 138.167822,114.254783 L138.167822,68.6359591 L138.16448,68.6359591 Z" id="Path" fill="#486075" fill-rule="nonzero"></path>
                <path d="M55.2497525,61.928491 L130.829703,61.928491 L130.829703,114.013555 C130.829703,115.399479 129.70914,116.522992 128.326856,116.522992 L57.512005,116.522992 C56.9120183,116.522992 56.3366055,116.284021 55.9123509,115.858649 C55.4880962,115.433277 55.2497525,114.856349 55.2497525,114.254783 L55.2497525,61.928491 Z" id="Path" fill="#182835" fill-rule="nonzero"></path>
                <path d="M55.2497525,68.0797954 L130.829703,68.0797954 L130.829703,114.013555 C130.829703,115.399479 129.70914,116.522992 128.326856,116.522992 L57.512005,116.522992 C56.9120183,116.522992 56.3366055,116.284021 55.9123509,115.858649 C55.4880962,115.433277 55.2497525,114.856349 55.2497525,114.254783 L55.2497525,68.0797954 Z" id="Path" fill="#213447" fill-rule="nonzero"></path>
                <path d="M138.16448,68.6359591 L213.747772,68.6359591 L213.747772,84.7647059 C213.747772,85.43025 213.48408,86.0685353 213.014705,86.539146 C212.545331,87.0097568 211.908722,87.2741432 211.244926,87.2741432 L140.430074,87.2741432 C139.180667,87.2741432 138.167822,86.2586311 138.167822,85.0059335 L138.167822,68.6359591 L138.16448,68.6359591 Z" id="Path" fill="url(#linearGradient-9)" fill-rule="nonzero"></path>
                <path d="M141.422525,61.1981074 L210.489728,61.1981074 C212.68588,61.1981074 214.466213,62.9831287 214.466213,65.1850639 L214.466213,77.6250384 C214.466213,81.2128976 211.565317,84.1214322 207.986881,84.1214322 L143.688119,84.1214322 C140.242559,84.1214322 137.449381,81.3208989 137.449381,77.866266 L137.449381,65.1817136 C137.451224,62.9823943 139.228982,61.1999548 141.422525,61.1981074 Z" id="Path" fill="#213447" fill-rule="nonzero"></path>
                <ellipse id="Oval" fill="#517087" fill-rule="nonzero" cx="175.556807" cy="71.4335294" rx="3.50866337" ry="3.51790281"></ellipse>
                <rect id="Rectangle" fill="#517087" fill-rule="nonzero" x="60.0850248" y="70.9577749" width="65.434901" height="43.7359079" rx="9.28"></rect>
                <path d="M55.2497525,88.1150895 L130.829703,88.1150895 L130.829703,114.013555 C130.829703,115.399479 129.70914,116.522992 128.326856,116.522992 L57.512005,116.522992 C56.9120183,116.522992 56.3366055,116.284021 55.9123509,115.858649 C55.4880962,115.433277 55.2497525,114.856349 55.2497525,114.254783 L55.2497525,88.1150895 Z" id="Path" fill="#486075" fill-rule="nonzero"></path>
                <rect id="Rectangle" fill="url(#linearGradient-10)" fill-rule="nonzero" x="60.0850248" y="77.1124297" width="65.434901" height="7.87340153"></rect>
                <path d="M175.790718,68.7331202 C175.098351,68.7316757 174.433275,69.0037027 173.93948,69.4903069 L178.393812,71.8355754 C178.41905,71.6883571 178.43246,71.5393447 178.433911,71.3899744 C178.435686,70.6859498 178.157992,70.0101501 177.662104,69.5116998 C177.166217,69.0132494 176.492896,68.733118 175.790718,68.7331202 Z" id="Path" fill="url(#linearGradient-11)" fill-rule="nonzero"></path>
                <path d="M57.0207921,89.9510997 L129.058663,89.9510997 L129.058663,112.167494 C129.058663,113.553418 127.938101,114.676931 126.555817,114.676931 L59.2830446,114.676931 C58.033637,114.676931 57.0207921,113.661419 57.0207921,112.408721 L57.0207921,89.9611509 L57.0207921,89.9510997 Z" id="Path" fill="url(#linearGradient-12)" fill-rule="nonzero"></path>
            </g>
        </g>
    </g>
</svg>